<svg id="Layer_1" data-name="Layer 1" xmlns="http://www.w3.org/2000/svg" xmlns:xlink="http://www.w3.org/1999/xlink" viewBox="0 0 600 600"><defs><style>.cls-1{fill:none;}.cls-2{clip-path:url(#clip-path);}.cls-3{fill:#ee4036;}.cls-4{fill:#fff;}</style><clipPath id="clip-path"><polygon class="cls-1" points="216.66 446.46 132.1 300 216.66 153.54 385.77 153.54 470.33 300 385.77 446.46 216.66 446.46"/></clipPath></defs><title>10 IconsColor</title><g class="cls-2"><path class="cls-3" d="M250.51,417.67A87,87,0,0,1,221.4,386C209.76,364.33,207,341,209,317c1.48-17.48,5.61-34.41,13.8-50,4.31-8.21,9.88-15.75,14.86-23.56,7.34,2.63,13.31,6.77,20.7,2.63-1.58-.91-2.87-1.7-4.2-2.41q-21-11.05-41.92-22.09c-5.63-3-6.5-5.51-4-11.39,5.22-12.43,16-18,30.94-15.35,9.28,1.68,18.38,4.32,28.69,6.81l-13.54-14c1-2.2,2.64-5.58,4.23-9,14.63-31.09,29.31-62.16,43.81-93.31,1.34-2.86,2.87-4.1,5.92-3.58,4.56.79,9.13,1.51,14,2.32C318.92,79,315.08,74.6,308,73.59c3.15-6.72,6.15-13.18,9.18-19.61Q380-79.39,442.72-212.75c3.51-7.45,7.29-9.19,15.36-6.93,1.66.47,3.29,1.06,5,1.63-2.39-5.84-6.12-9-12.72-10.9q13.35-28.41,26.69-56.77c3.29-7,6.54-14,9.92-21,4.56-9.4,13.6-12.95,22.1-8.79,8.3,4.07,11.14,13.22,6.79,22.49Q461.83-178.12,407.72-63.22,344.11,71.69,280.37,206.55c-.49,1-.92,2.09-1.36,3.08,2.69,2.37,5.3,4.49,7.7,6.84a20.18,20.18,0,0,1,3.49,25.32c-1.38,2.41-3.09,4.63-4.47,7-2.44,4.23-5.58,7.08-11.22,5.72,3.72,12.39.38,23.61-3.38,34.74-.53,1.57-1.86,2.92-3,4.24-27.31,32.9-34.64,69.61-20.08,110,9.12,25.28,29,39.25,53.5,47.54a46.3,46.3,0,0,1,10.2,4.27c-9.61,3.69-19.07,7.81-28.84,11-37.26,12.08-74,10.22-109.39-6.51-33.82-16-52.88-44.06-62.49-79.41-11.34-41.71-.42-78,26.74-110.31,13.88-16.52,30.44-29.94,48.63-41.43a2.19,2.19,0,0,1,1.61-.37c-5.09,4.68-10.42,9.13-15.24,14.08-24.13,24.78-39.77,54-43.06,88.68-5.06,53.32,14.91,95.76,66.38,122,14.8,7.54,30.23,10.64,46.46,11.13,7.5.23,15,0,21.07,0-12-2.43-25.68-3.78-38.42-8.08-34-11.47-63.72-29.62-78.13-64.38C126,341,135.14,275,192.6,234.92c2.52-1.76,5.28-3.19,7.7-5.07,3.76-2.92,7.31-3.23,12.23,1.67-1.21.56-2.86.88-3.85,1.87-29.11,28.84-42.48,63.95-40.7,104.7,1.6,36.49,14.65,68.25,40.33,94.67,12.75,13.12,28.54,20,45.83,24.4,5.89,1.48,11.75,3.06,17.69,4.2-9.21-4.4-18.52-8.6-27.62-13.22-40.8-20.73-61.7-55.17-67.26-99.57-4-32.21,2.35-62.46,20.7-89.51,6.19-9.12,14-17.13,21-25.53l12.26,6.15a9.27,9.27,0,0,1-.88,1.64c-16.3,18.63-24.11,40.92-27.45,64.95-3,21.61-2.91,43.25,2.54,64.55,4,15.57,11.11,29.45,24.86,38.6,6.08,4.05,13.13,6.62,19.74,9.87C250,418.75,250.26,418.21,250.51,417.67Z"/><path class="cls-3" d="M253,336.25c5.08,5.16,9.54,10.64,14.92,15,16.43,13.24,35.16,16.6,54.89,9.49,15.22-5.49,29.86-12.62,44.71-19.12,12.49-5.46,25.19-10.18,38.73-12.36,4.8-.78,9.1-.67,13,2.95s8.56,6.92,13.27,10.67c-7.34,1.17-14,1.82-20.43,3.32-18.5,4.3-34.66,13.82-50.84,23.28q-15.33,9-30.8,17.71c-20.25,11.41-41.41,10.69-62.94,4.49-1.25-.36-2.49-.72-3.74-1.06-.1,0-.24.11-.69.34,15.26,12,32.3,16.52,50.74,11,11.07-3.31,21.63-8.73,31.95-14.09,16.47-8.56,32.28-18.39,48.86-26.7a88.73,88.73,0,0,1,42-9.34,9,9,0,0,1,6.21,2.82c5.23,6.8,10,14,15.7,22.13-4-.31-6.54-.41-9.05-.72-13.55-1.68-25.7,1.61-36.93,9.41-11.4,7.92-22.76,16-34.84,22.82a188,188,0,0,1-56.89,21.16c-1,.19-1.93.51-4.1,1.09,13.88,1.68,26.2,2.17,38.52-2.9a261.61,261.61,0,0,0,54-29.78,102.22,102.22,0,0,1,22-12.42c9.21-3.62,19.09-1.62,28.63,0a4.34,4.34,0,0,1,2.85,2.25c2.62,6.79,5,13.66,7.39,20.28l-52.3,8.13c.07.43.14.85.2,1.27H472c.7,4.06,1.48,8.54,2.49,14.34-11.43,0-22.09-.16-32.74,0-24.46.43-48.92.81-73.35,1.76-5.29.2-10.48,2.73-15.72,4.18L353,439H474.33a6.74,6.74,0,0,1,.64,1.57c.61,9.15.6,9.18-8.58,9-49.93-1-99.86-1.81-149.78-3.13-6.24-.17-12.74-2.18-18.55-4.65-31.08-13.21-47.29-37-48.94-70.68C248.55,359.29,249.29,347.66,253,336.25Z"/><path class="cls-3" d="M257.39,323.24c21.71,9.66,42.54,10.4,63.2.59,10.81-5.12,21.19-11.18,31.68-17,4.22-2.33,8.21-2.89,12.85-1,12.1,5,24.35,9.6,36.54,14.37l-.48,1.05c-8.8,2.86-17.81,5.17-26.33,8.69-14.17,5.86-28,12.62-42,18.74-9.67,4.21-19.62,7.82-30.43,7.35-20.5-.9-34.54-12-44.66-28.93C257.15,326.18,257.49,324.66,257.39,323.24Z"/><path class="cls-3" d="M346.45,300.86c-14.72,7.74-27.2,17-42.48,20.36a64.88,64.88,0,0,1-37.47-2.74c-4.93-1.85-5.32-4-2-7.7a3.73,3.73,0,0,1,3.27-1c14.53,5.36,28.46,3.06,42.09-3.09,3.18-1.44,6.52-2.86,9.2-5,5-4,10.31-4.6,16.28-2.92C338.5,299.69,341.87,300,346.45,300.86Z"/><path class="cls-3" d="M311.25,296.17c-12.54,8-25.77,10.6-40.22,6.5,2.3-4.44,5.23-6.7,10.16-6.58C291.21,296.35,301.23,296.17,311.25,296.17Z"/></g><polygon class="cls-4" points="390.35 143.54 209.69 143.54 119.36 300 209.69 456.46 390.35 456.46 412.55 418.01 442.43 469.78 420.24 508.22 179.8 508.22 59.59 300 179.8 91.78 420.24 91.78 442.43 130.22 412.55 181.99 390.35 143.54"/></svg>