<svg id="Layer_1" data-name="Layer 1"
    xmlns="http://www.w3.org/2000/svg"
    xmlns:xlink="http://www.w3.org/1999/xlink" viewBox="0 0 600 600">
    <defs>
        <style>.cls-1{fill:none;}.cls-2{clip-path:url(#clip-path);}.cls-3{fill:#8bc53f;}.cls-4{fill:#fff;}</style>
        <clipPath id="clip-path">
            <polygon class="cls-1" points="216.39 446.46 131.84 300 216.39 153.54 385.51 153.54 470.06 300 385.51 446.46 216.39 446.46"/>
        </clipPath>
    </defs>
    <title>10 IconsColor</title>
    <g class="cls-2">
        <path class="cls-3" d="M87.15,316.63c3.45.54,7.34,1.14,11.23,1.76,2.07.33,4.14.71,6.21,1a4.69,4.69,0,0,0,5.16-2.48c2.2-3.57,4.39-7.15,6.64-10.69a4.61,4.61,0,0,0-.1-5.58c-3.16-4.54-6.29-9.1-9.43-13.66-2-2.91-1.88-4.84.56-7.37,1.92-2,3.88-3.95,5.88-5.86s4.09-2.13,6.51-.49c4.54,3.08,9.05,6.18,13.58,9.28,2.7,1.85,4.19,1.78,6.84,0,2.85-1.92,5.75-3.75,8.69-5.52,3.61-2.16,4.12-3.24,3.42-7.39-.88-5.24-1.7-10.5-2.52-15.76a4.41,4.41,0,0,1,2.73-5.12q4.63-1.83,9.39-3.34c2.3-.72,4.25.24,5.54,2.48,2.79,4.84,5.54,9.69,8.32,14.53,1.55,2.7,2.9,3.27,5.95,2.86q5.48-.74,11-1.24c3.15-.28,4.4-1.15,5.31-4.15q2.39-7.77,4.74-15.55c.95-3.1,2.61-4.3,5.79-4,2.8.26,5.6.59,8.39,1s4.35,2,4.58,4.86q.68,8.43,1.28,16.86a4.59,4.59,0,0,0,3.55,4.62c3.87,1.32,7.73,2.65,11.57,4,2.38.86,4.11.53,5.83-1.35q5.52-6,11-12c2.48-2.75,4.27-3.07,7.39-1.17,2.27,1.39,4.54,2.78,6.78,4.22,2.51,1.62,3.18,3.72,2.09,6.48-2,5.18-4.14,10.35-6.2,15.53-1.1,2.74-.71,4.13,1.4,6.16,2.84,2.74,5.63,5.53,8.4,8.33,1.88,1.9,3.32,2.26,5.81,1.26l15.35-6.19c2.93-1.18,5-.62,6.79,2,1.59,2.38,3.1,4.82,4.58,7.27s1.07,4.4-1,6.32q-6.15,5.7-12.28,11.41c-2.18,2-2.42,3.49-1.38,6.34,1.35,3.69,2.62,7.42,3.86,11.16a4.73,4.73,0,0,0,4.43,3.6l17.48,1.24a4.69,4.69,0,0,1,4.54,4.39c.4,3,.73,6,1,9a4.52,4.52,0,0,1-3.44,5.12c-5.32,1.66-10.66,3.27-16,4.89-3.11.94-4,2.15-4.3,5.35-.33,3.56-.73,7.13-1.22,10.68s.07,4.72,3.07,6.42q7,4,14,7.92c2.73,1.55,3.54,3.61,2.55,6.58-.91,2.72-1.85,5.42-2.87,8.09s-2.85,3.6-5.6,3.17q-8.1-1.31-16.21-2.64c-3.11-.52-4.59.23-6.21,2.95-2,3.3-4,6.56-6.07,9.79-1.5,2.33-1.56,3.77,0,6.07l9.31,13.55c2,2.93,1.87,4.8-.61,7.36-1.93,2-3.88,3.95-5.88,5.86s-4.1,2-6.41.48c-4.58-3.09-9.14-6.23-13.71-9.34-2.74-1.87-4.07-1.78-6.84.06-3.15,2.1-6.36,4.11-9.61,6.06a4.8,4.8,0,0,0-2.61,5.36c.91,5.66,1.77,11.33,2.67,17a4.57,4.57,0,0,1-3.06,5.5C242,483,239.09,484,236.18,485a4.52,4.52,0,0,1-5.88-2.24c-2.8-4.83-5.54-9.69-8.31-14.53-1.63-2.84-2.8-3.35-6-2.94-3.86.49-7.73.89-11.6,1.26a4.78,4.78,0,0,0-4.56,3.68c-1.65,5.37-3.27,10.76-4.9,16.14-.84,2.79-2.42,4.05-5.29,3.86-3.11-.2-6.22-.57-9.31-1a4.45,4.45,0,0,1-4-4.39c-.52-5.86-1-11.74-1.42-17.61A4.55,4.55,0,0,0,171.5,463c-3.91-1.36-7.82-2.7-11.72-4.09-2.39-.85-4.1-.51-5.83,1.37q-5.5,6-11,12c-2.46,2.73-4.26,3.05-7.39,1.15-2.19-1.33-4.37-2.66-6.52-4.05-2.91-1.88-3.48-3.83-2.18-7.07q3-7.55,6-15.09c1.12-2.8.68-4.22-1.51-6.27-2.76-2.6-5.43-5.29-8.08-8-2.15-2.21-3.34-2.55-6.13-1.43q-7.55,3-15.07,6.09c-3.1,1.26-5.18.71-7-2.05-1.56-2.35-3-4.74-4.51-7.15s-1.1-4.4,1-6.32c4.13-3.85,8.26-7.68,12.38-11.53,2.07-1.93,2.34-3.41,1.38-6.06q-2.07-5.7-4-11.44a4.53,4.53,0,0,0-4.2-3.47c-5.51-.43-11-.86-16.55-1.19-3.82-.23-5.3-1.5-5.77-5.36-.33-2.69-.7-5.38-.89-8.09-.2-2.88,1-4.46,3.81-5.32l16-4.87c2.69-.82,3.66-2.23,3.9-5,.33-3.92.82-7.83,1.3-11.75.31-2.5-.3-3.93-2.55-5.21-4.76-2.71-9.54-5.38-14.31-8.07-3.14-1.78-3.93-3.79-2.75-7.16.94-2.7,1.87-5.41,2.92-8.07C83,317.46,84.55,316.57,87.15,316.63ZM199,441.31c43.72.46,77-36.83,76-77.66-1-41-34-75.25-78.22-74.58-37.06.56-76.25,33-73.83,79.44C125.1,410.11,157.83,441.32,199,441.31Z"/>
        <path class="cls-3" d="M314.19,368.64c3.45.54,7.34,1.14,11.23,1.76,2.07.33,4.14.72,6.21,1a4.68,4.68,0,0,0,5.16-2.48c2.2-3.57,4.39-7.15,6.64-10.69a4.59,4.59,0,0,0-.1-5.57c-3.16-4.55-6.29-9.11-9.43-13.67-2-2.91-1.88-4.84.56-7.37,1.92-2,3.88-3.95,5.88-5.86s4.09-2.13,6.51-.49c4.54,3.08,9,6.18,13.58,9.28,2.7,1.85,4.19,1.78,6.84,0,2.85-1.92,5.75-3.75,8.69-5.52,3.61-2.16,4.12-3.24,3.42-7.38-.88-5.25-1.7-10.51-2.52-15.77a4.41,4.41,0,0,1,2.73-5.12q4.64-1.83,9.39-3.34c2.3-.72,4.25.24,5.54,2.48,2.79,4.84,5.54,9.69,8.32,14.53,1.55,2.7,2.9,3.27,6,2.86,3.65-.49,7.31-.91,11-1.23,3.15-.29,4.4-1.16,5.31-4.16q2.39-7.77,4.74-15.55c.95-3.1,2.61-4.3,5.79-4,2.8.26,5.6.59,8.39,1s4.35,2,4.58,4.86q.68,8.43,1.28,16.86a4.59,4.59,0,0,0,3.55,4.62c3.87,1.32,7.73,2.65,11.58,4,2.37.85,4.1.52,5.82-1.36q5.52-6,11-12c2.48-2.75,4.27-3.07,7.39-1.17,2.27,1.39,4.54,2.78,6.78,4.22,2.51,1.62,3.18,3.72,2.09,6.49-2.05,5.18-4.14,10.34-6.2,15.52-1.1,2.74-.71,4.13,1.4,6.16,2.84,2.74,5.63,5.53,8.4,8.34,1.88,1.89,3.32,2.25,5.81,1.25q7.68-3.08,15.35-6.19c2.93-1.18,5-.62,6.79,2,1.59,2.38,3.1,4.82,4.58,7.28s1.08,4.4-1,6.31q-6.15,5.7-12.28,11.41c-2.18,2-2.42,3.49-1.38,6.34,1.35,3.69,2.62,7.42,3.86,11.16a4.72,4.72,0,0,0,4.43,3.6l17.48,1.24a4.68,4.68,0,0,1,4.54,4.39c.4,3,.73,6,1,9a4.52,4.52,0,0,1-3.44,5.12c-5.32,1.66-10.66,3.27-16,4.89-3.11.94-4,2.15-4.3,5.35-.33,3.57-.73,7.13-1.22,10.68s.07,4.72,3.07,6.42q7,4,14,7.92c2.73,1.56,3.54,3.62,2.55,6.58-.91,2.72-1.85,5.42-2.87,8.09s-2.85,3.6-5.59,3.17q-8.11-1.31-16.22-2.64c-3.11-.52-4.59.23-6.21,2.95-2,3.3-4,6.56-6.07,9.79-1.5,2.33-1.56,3.77,0,6.07l9.31,13.55c2,2.93,1.87,4.8-.61,7.36-1.93,2-3.88,4-5.88,5.86s-4.1,2-6.4.48c-4.59-3.09-9.15-6.23-13.72-9.34-2.74-1.87-4.07-1.77-6.84.06-3.15,2.1-6.36,4.11-9.61,6.06a4.8,4.8,0,0,0-2.61,5.36c.91,5.66,1.77,11.33,2.67,17a4.57,4.57,0,0,1-3.06,5.5C469,535,466.13,536,463.22,537a4.54,4.54,0,0,1-5.88-2.25c-2.8-4.83-5.54-9.69-8.31-14.53-1.62-2.84-2.8-3.35-6-2.94-3.86.49-7.73.89-11.6,1.26a4.78,4.78,0,0,0-4.56,3.68c-1.65,5.37-3.27,10.76-4.9,16.14-.84,2.79-2.42,4-5.29,3.86-3.11-.2-6.22-.57-9.31-1a4.45,4.45,0,0,1-4-4.38c-.52-5.87-1-11.74-1.42-17.62a4.55,4.55,0,0,0-3.39-4.26c-3.91-1.35-7.82-2.7-11.72-4.09-2.39-.85-4.1-.51-5.83,1.37q-5.5,6-11,12c-2.46,2.73-4.26,3.05-7.39,1.15-2.19-1.33-4.37-2.66-6.52-4.05-2.91-1.88-3.48-3.83-2.18-7.07q3-7.55,6-15.09c1.12-2.8.68-4.22-1.51-6.27-2.76-2.6-5.43-5.29-8.08-8-2.15-2.21-3.34-2.55-6.13-1.43q-7.55,3-15.07,6.09c-3.1,1.26-5.18.71-7-2.05-1.56-2.35-3-4.74-4.51-7.15s-1.1-4.4,1-6.32q6.19-5.76,12.38-11.53c2.07-1.93,2.34-3.41,1.38-6.06q-2.07-5.7-4-11.44a4.54,4.54,0,0,0-4.2-3.47c-5.51-.43-11-.86-16.55-1.19-3.82-.23-5.3-1.5-5.77-5.36-.33-2.69-.7-5.38-.89-8.08-.2-2.88,1-4.47,3.81-5.33l16-4.87c2.69-.82,3.66-2.23,3.9-5,.33-3.93.82-7.84,1.3-11.75.31-2.51-.3-3.94-2.55-5.22-4.76-2.71-9.54-5.38-14.31-8.07-3.14-1.78-3.93-3.79-2.75-7.16.94-2.7,1.87-5.41,2.92-8.07C310.07,369.47,311.59,368.59,314.19,368.64ZM426,493.32c43.71.46,77-36.83,76-77.66-1-41-34-75.25-78.22-74.58-37.06.57-76.25,33-73.83,79.44C352.14,462.12,384.87,493.33,426,493.32Z"/>
        <path class="cls-3" d="M363.11,143l11.23,1.76c2.07.33,4.13.71,6.21,1a4.7,4.7,0,0,0,5.16-2.48c2.2-3.57,4.38-7.16,6.64-10.69a4.61,4.61,0,0,0-.11-5.58q-4.73-6.81-9.42-13.66c-2-2.91-1.89-4.84.55-7.37,1.93-2,3.88-4,5.88-5.86s4.1-2.13,6.52-.49q6.8,4.62,13.57,9.28c2.71,1.85,4.19,1.78,6.85,0,2.84-1.92,5.74-3.75,8.68-5.52,3.61-2.16,4.12-3.24,3.43-7.39q-1.32-7.87-2.52-15.76a4.4,4.4,0,0,1,2.73-5.12q4.64-1.83,9.38-3.34c2.3-.72,4.26.24,5.55,2.48,2.79,4.83,5.54,9.69,8.32,14.53,1.55,2.7,2.9,3.26,5.95,2.86q5.48-.73,11-1.24c3.15-.28,4.39-1.16,5.31-4.15q2.37-7.77,4.74-15.55c.94-3.1,2.61-4.3,5.78-4,2.8.26,5.6.59,8.39,1s4.36,2,4.59,4.86q.66,8.43,1.28,16.86A4.59,4.59,0,0,0,502.32,94q5.81,2,11.58,4a4.78,4.78,0,0,0,5.83-1.35q5.5-6,11-12c2.48-2.75,4.27-3.07,7.39-1.17,2.28,1.39,4.55,2.78,6.79,4.22,2.51,1.62,3.18,3.72,2.08,6.48-2.05,5.18-4.14,10.35-6.2,15.53-1.09,2.74-.71,4.13,1.4,6.16,2.84,2.74,5.63,5.53,8.41,8.33,1.87,1.9,3.32,2.26,5.8,1.26l15.36-6.19c2.93-1.18,5-.62,6.78,2,1.59,2.39,3.11,4.83,4.59,7.28s1.07,4.4-1,6.32l-12.28,11.41c-2.17,2-2.41,3.49-1.37,6.33,1.35,3.7,2.61,7.43,3.85,11.17a4.74,4.74,0,0,0,4.44,3.6l17.48,1.24a4.69,4.69,0,0,1,4.54,4.39c.39,3,.72,6,1,9a4.52,4.52,0,0,1-3.44,5.13c-5.31,1.66-10.65,3.27-16,4.88-3.11.95-4,2.16-4.31,5.36-.32,3.56-.72,7.13-1.21,10.67s.07,4.73,3.07,6.42c4.68,2.65,9.36,5.27,14,7.93,2.73,1.55,3.55,3.61,2.56,6.58-.91,2.71-1.86,5.42-2.88,8.09s-2.85,3.6-5.59,3.16q-8.12-1.29-16.22-2.63c-3.1-.52-4.59.23-6.21,3q-2.94,4.95-6.07,9.79c-1.49,2.33-1.55,3.77,0,6.06q4.65,6.79,9.31,13.56c2,2.93,1.87,4.8-.62,7.36-1.93,2-3.88,3.95-5.88,5.86a4.62,4.62,0,0,1-6.4.48c-4.59-3.09-9.14-6.23-13.71-9.34-2.74-1.87-4.08-1.78-6.84.06-3.15,2.1-6.36,4.11-9.61,6.06a4.82,4.82,0,0,0-2.62,5.36c.92,5.66,1.78,11.33,2.68,17,.41,2.62-.56,4.53-3.06,5.5-2.86,1.1-5.76,2.11-8.66,3.07a4.54,4.54,0,0,1-5.89-2.24c-2.79-4.83-5.54-9.69-8.31-14.53-1.62-2.84-2.8-3.35-6-2.94-3.86.49-7.73.89-11.6,1.26a4.79,4.79,0,0,0-4.56,3.67q-2.46,8.07-4.89,16.15c-.85,2.79-2.42,4.05-5.29,3.86-3.12-.21-6.22-.57-9.31-1a4.47,4.47,0,0,1-4-4.39c-.51-5.86-1-11.74-1.42-17.61a4.53,4.53,0,0,0-3.38-4.26c-3.91-1.36-7.83-2.7-11.73-4.09a4.77,4.77,0,0,0-5.82,1.37q-5.52,6-11,12.05c-2.47,2.73-4.27,3.05-7.39,1.15-2.19-1.33-4.38-2.66-6.53-4-2.91-1.88-3.48-3.83-2.18-7.07q3-7.54,6.05-15.09c1.11-2.8.68-4.22-1.51-6.28-2.76-2.59-5.44-5.29-8.08-8-2.16-2.21-3.35-2.55-6.14-1.43q-7.54,3-15.06,6.09c-3.11,1.26-5.19.71-7-2.06-1.56-2.34-3.05-4.73-4.5-7.14s-1.11-4.4,1-6.33c4.12-3.84,8.26-7.67,12.38-11.52,2.07-1.93,2.34-3.41,1.37-6.06q-2.06-5.7-4-11.44a4.56,4.56,0,0,0-4.2-3.48c-5.52-.43-11-.85-16.56-1.18-3.82-.23-5.29-1.5-5.76-5.36-.33-2.69-.71-5.38-.89-8.09-.21-2.88,1-4.46,3.81-5.32l16-4.87c2.69-.82,3.66-2.23,3.89-5,.34-3.92.82-7.84,1.31-11.75.31-2.51-.3-3.93-2.56-5.21-4.76-2.71-9.54-5.38-14.3-8.07-3.15-1.78-3.93-3.79-2.76-7.16.94-2.7,1.87-5.41,2.92-8.07C359,143.8,360.5,142.91,363.11,143ZM474.94,267.65c43.72.45,77-36.83,76-77.66-1-41-34-75.25-78.21-74.58-37.06.56-76.25,33-73.83,79.44C401.05,236.44,433.78,267.66,474.94,267.65Z"/>
        <circle class="cls-3" cx="199.87" cy="364.32" r="66.83"/>
        <circle class="cls-3" cx="428.8" cy="418.21" r="66.83"/>
        <path class="cls-3" d="M87.8,86.65c3.44.54,7.34,1.14,11.23,1.76,2.07.33,4.13.72,6.21,1A4.7,4.7,0,0,0,110.4,87c2.2-3.58,4.39-7.16,6.64-10.7a4.59,4.59,0,0,0-.11-5.57q-4.73-6.82-9.42-13.66c-2-2.91-1.88-4.85.56-7.38,1.92-2,3.87-3.95,5.88-5.86s4.09-2.13,6.51-.49c4.54,3.08,9,6.19,13.57,9.28,2.71,1.86,4.19,1.79,6.85,0,2.84-1.92,5.75-3.75,8.68-5.51,3.61-2.17,4.13-3.25,3.43-7.39-.88-5.25-1.7-10.51-2.52-15.77a4.41,4.41,0,0,1,2.73-5.12c3.09-1.21,6.22-2.34,9.39-3.34,2.29-.72,4.25.24,5.54,2.49,2.79,4.83,5.54,9.68,8.32,14.52,1.55,2.7,2.9,3.27,6,2.86q5.47-.74,11-1.23c3.15-.28,4.4-1.16,5.31-4.15q2.38-7.78,4.74-15.56c.94-3.1,2.61-4.3,5.78-4,2.81.25,5.6.59,8.39,1s4.36,1.95,4.59,4.86q.67,8.41,1.28,16.85A4.58,4.58,0,0,0,227,37.66c3.87,1.32,7.74,2.66,11.58,4,2.38.85,4.1.52,5.83-1.36q5.51-6,11-12c2.48-2.74,4.27-3.06,7.39-1.16,2.28,1.38,4.55,2.78,6.79,4.22,2.51,1.62,3.18,3.71,2.09,6.48-2.06,5.18-4.15,10.34-6.21,15.52-1.09,2.75-.71,4.14,1.4,6.17,2.84,2.73,5.63,5.53,8.41,8.33,1.88,1.89,3.32,2.25,5.81,1.25q7.68-3.08,15.35-6.18c2.93-1.19,5-.63,6.78,2,1.6,2.38,3.11,4.82,4.59,7.28s1.07,4.4-1,6.32c-4.09,3.8-8.19,7.59-12.27,11.41-2.18,2-2.42,3.49-1.38,6.33,1.35,3.7,2.62,7.42,3.85,11.16a4.73,4.73,0,0,0,4.44,3.6q8.74.63,17.48,1.24a4.7,4.7,0,0,1,4.54,4.4c.39,3,.72,6,1,9A4.53,4.53,0,0,1,321,130.8c-5.32,1.66-10.66,3.26-16,4.88-3.11.94-4,2.15-4.3,5.35-.33,3.57-.73,7.13-1.22,10.68s.07,4.72,3.07,6.42c4.68,2.64,9.37,5.27,14,7.93,2.73,1.55,3.54,3.61,2.55,6.57-.91,2.72-1.85,5.42-2.87,8.1s-2.86,3.6-5.6,3.16q-8.12-1.29-16.21-2.64c-3.11-.52-4.6.23-6.22,3-2,3.3-4,6.56-6.06,9.78-1.5,2.33-1.56,3.78,0,6.07l9.31,13.56c2,2.92,1.87,4.79-.62,7.35-1.92,2-3.87,3.95-5.88,5.86s-4.09,2-6.4.49c-4.58-3.1-9.14-6.24-13.71-9.35-2.74-1.86-4.07-1.77-6.84.07q-4.73,3.14-9.61,6.05a4.84,4.84,0,0,0-2.62,5.37c.92,5.66,1.78,11.33,2.68,17a4.56,4.56,0,0,1-3.06,5.49c-2.86,1.11-5.75,2.12-8.66,3.08a4.54,4.54,0,0,1-5.89-2.25c-2.79-4.83-5.53-9.69-8.3-14.53-1.63-2.84-2.8-3.34-6-2.93-3.86.49-7.73.89-11.6,1.26a4.76,4.76,0,0,0-4.56,3.67q-2.46,8.07-4.89,16.14c-.85,2.79-2.42,4.06-5.29,3.87-3.11-.21-6.22-.58-9.31-1a4.47,4.47,0,0,1-4-4.38q-.76-8.81-1.41-17.62a4.56,4.56,0,0,0-3.39-4.26c-3.91-1.35-7.83-2.7-11.72-4.09-2.39-.85-4.1-.51-5.83,1.38q-5.52,6-11,12.05c-2.46,2.73-4.26,3-7.39,1.14-2.19-1.32-4.38-2.65-6.53-4-2.9-1.88-3.48-3.83-2.17-7.08l6-15.09c1.12-2.79.68-4.21-1.51-6.27-2.76-2.6-5.43-5.29-8.08-8-2.16-2.21-3.35-2.56-6.14-1.44q-7.53,3-15.06,6.09c-3.11,1.27-5.18.71-7-2.05-1.56-2.34-3.06-4.74-4.51-7.15s-1.1-4.4,1-6.32q6.2-5.76,12.38-11.53c2.07-1.93,2.34-3.41,1.38-6.06q-2.07-5.69-4-11.44a4.55,4.55,0,0,0-4.2-3.47c-5.52-.43-11-.86-16.55-1.19-3.83-.22-5.3-1.5-5.77-5.35-.33-2.7-.7-5.39-.89-8.09-.2-2.88,1-4.47,3.81-5.32l16-4.87c2.69-.82,3.66-2.24,3.9-5,.33-3.93.82-7.84,1.3-11.75.31-2.51-.3-3.93-2.56-5.22-4.75-2.71-9.54-5.37-14.3-8.07C79.57,103,78.79,101,80,97.57c.94-2.7,1.88-5.41,2.92-8.07C83.68,87.48,85.19,86.6,87.8,86.65ZM199.63,211.34c43.72.45,77-36.84,76-77.66-1-41-34-75.26-78.22-74.58-37.06.56-76.25,33-73.83,79.43C125.74,180.13,158.48,211.34,199.63,211.34Z"/>
        <circle class="cls-3" cx="202.41" cy="136.22" r="66.83"/>
        <circle class="cls-3" cx="478.19" cy="190.74" r="66.83"/>
    </g>
    <polygon class="cls-4" points="390.44 143.54 209.78 143.54 119.45 300 209.78 456.46 390.44 456.46 412.64 418.01 442.52 469.78 420.32 508.22 179.89 508.22 59.68 300 179.89 91.78 420.32 91.78 442.52 130.22 412.64 181.99 390.44 143.54"/>
</svg>