<svg id="Layer_1" data-name="Layer 1" xmlns="http://www.w3.org/2000/svg" viewBox="0 0 427.55 139.21"><title>Final Logo_With Breathing Space</title><polygon points="98.19 106.1 56.05 106.1 34.99 69.61 56.05 33.12 98.19 33.12 103.36 42.09 110.33 30.01 105.16 21.05 49.08 21.05 21.05 69.61 49.08 118.17 105.16 118.17 110.33 109.2 103.36 97.13 98.19 106.1"/><polygon points="142.89 63.57 121.41 63.57 121.41 42.09 109.34 42.09 109.34 85.05 102.36 85.05 109.34 97.12 121.41 97.12 121.41 75.64 142.89 75.64 142.89 97.12 154.96 97.12 154.96 42.09 142.89 42.09 142.89 63.57"/><path d="M77.12,42.09a27.52,27.52,0,0,0,0,55h26.24l-7-12.07H77.12a15.44,15.44,0,0,1,0-30.88H96.39l7-12.08Z"/><polygon points="297.01 85.05 280.07 85.05 280.07 42.09 267.99 42.09 267.99 97.12 303.98 97.12 321.81 66.24 332.66 85.05 316.92 85.05 309.95 97.12 353.58 97.12 321.81 42.09 297.01 85.05"/><path d="M406.5,58.87a16.77,16.77,0,0,0-16.77-16.78H363.55v43h-11l7,12.07h30.18a16.77,16.77,0,0,0,12.88-27.51A16.71,16.71,0,0,0,406.5,58.87ZM389.73,85.05H375.62V75.64h14.11a4.71,4.71,0,0,1,0,9.41Zm0-21.48H375.62v-9.4h14.11a4.7,4.7,0,0,1,0,9.4Z"/><polygon points="171.73 85.05 171.73 75.64 202.62 75.64 202.62 63.57 171.73 63.57 171.73 54.17 194.35 54.17 201.31 42.09 159.66 42.09 159.66 97.12 201.81 97.12 194.85 85.05 171.73 85.05"/><polygon points="235.31 81.66 219.86 42.09 207.79 42.09 207.79 85.05 200.82 85.05 207.79 97.12 219.86 97.12 219.86 73.02 229.27 97.12 241.34 97.12 250.75 73.02 250.75 97.12 262.82 97.12 262.82 42.09 250.75 42.09 235.31 81.66"/></svg>