<svg id="Layer_1" data-name="Layer 1" xmlns="http://www.w3.org/2000/svg" xmlns:xlink="http://www.w3.org/1999/xlink" viewBox="0 0 600 600"><defs><style>.cls-1{fill:none;}.cls-2{clip-path:url(#clip-path);}.cls-3{fill:#faaf40;}.cls-4{clip-path:url(#clip-path-2);}.cls-5{fill:#90278e;}.cls-6{fill:#fff;}</style><clipPath id="clip-path"><polygon class="cls-1" points="215.94 -173.54 131.39 -320 215.94 -466.46 385.06 -466.46 469.61 -320 385.06 -173.54 215.94 -173.54"/></clipPath><clipPath id="clip-path-2"><polygon class="cls-1" points="216.35 446.46 131.79 300 216.35 153.54 385.46 153.54 470.02 300 385.46 446.46 216.35 446.46"/></clipPath></defs><title>10 IconsColor</title><g class="cls-2"><path class="cls-3" d="M534.54-323c-58.69-130.42-143.72-242.7-234.31-355.53-86.94,107.95-170.07,214.63-225.83,339-14.33,32-26.71,67.65-28.18,102.13C40.24-96.52,155.91,19.55,298.37,21.5,477.85,24,606.86-162.35,534.54-323Zm-420.09,2.72c7,4.37,11.67,7.13,16.19,10.08,45.08,29.42,73,29.71,117.39.76a83.47,83.47,0,0,1-23.51-30.63c-36.07,21.18-54.27,16.68-95-20.3,54.77-80.78,110-162.26,165.23-243.73l10.71-.68c56.25,83.2,112.5,166.4,168.1,248.62-34,34.59-59.57,37.4-94.88,12.78l-.6-.43A83.44,83.44,0,0,1,356-312c39.93,29.58,80.88,32.16,123.41,2.6,2.13-1.48,4.89-2.07,9.2-3.82,4.7,12.47,10,23.81,12.91,35.73,1,4.18-2.47,11.84-6.26,14.38-15.08,10.09-31.17,18.64-46.73,28-20.78,12.56-42.29,13.39-60.78-2-55.93-46.55-110.43-46.91-166.53-.24-20.09,16.71-42.4,14.39-64.09-.24C138.7-250,119.38-261.14,97.75-274.52,102.66-288,108.2-303.19,114.45-320.31Zm25.62,218.07C188.21-74.89,225.4-91,262.12-117.5c34.14-24.61,50.23-23.36,85.74.48,46.71,31.38,54.68,33.39,102.47,25.88C380.66-3.74,220.62,1.55,140.07-102.24Zm354.68-62.88c-20.44,18.19-48.82,28.14-75,38.75-7,2.85-18.83-3.2-27.28-7.46-11.17-5.62-21.21-13.48-31.71-20.4-37.21-24.53-77-27.76-111.44.09-42.06,34-75.61,29.91-120.08,1-32.9-21.41-37.11-45-38.31-81.34,16.38,10.34,29.52,17.87,41.84,26.54,38.47,27.08,78,28.54,114.26-.93,39.59-32.13,74.88-32.45,114.46,0,35.37,29,74.54,27.72,112.92,2.91,9.82-6.35,20-12.12,30-18.16l7.05,3.18C506.37-201.86,507.11-176.13,494.75-165.12Z"/></g><g class="cls-4"><path class="cls-5" d="M410.48,336.07V450.62c-10.29,24.46-16.89,28.72-44.51,28.72H256.72q-94.13,0-188.25,0c-19.1,0-30.13-8.45-35.52-26.73a7.63,7.63,0,0,0-1.41-2V336.07c14.58-29,29.46-57.81,43.53-87,3.46-7.2,7.48-9.76,15.17-9.1,8,.68,16,.15,25,.15-1.07-3.48-1.73-5.85-2.52-8.19-7.43-22-15.18-43.82-22.06-66-1.38-4.45-1.28-11.84,1.43-14.43,3.16-3,10.35-4,15.07-2.82,27.69,6.66,55.12,14.34,82.75,21.26a23.2,23.2,0,0,0,12.84-.7c17.31-6.33,34.34-13.46,51.62-19.89,3.74-1.39,8.48-2.4,12.15-1.38,25.82,7.16,51.52,14.77,77.18,22.52,8.67,2.62,11.37,8.25,8.76,16.9-1.62,5.34-3.71,10.54-5.5,15.83-4.06,12-8.05,24-12.34,36.85,6.07,0,10.93.65,15.55-.13,9.7-1.66,14.1,2.92,18.09,11.26C381.85,279.72,396.33,307.81,410.48,336.07Zm-296-164c13.69,40,26.72,78.31,40,116.49.58,1.66,3.64,3.49,5.55,3.5q64.81.3,129.62,0c2.1,0,5.46-2.1,6.11-4,11.5-33,22.67-66,34.2-99.91-20.48-5.92-40.49-11.95-60.68-17.33a24,24,0,0,0-13.59.52c-16.54,6-32.66,13.2-49.25,19.07a31.65,31.65,0,0,1-16.93,1C165.13,185.55,140.92,178.92,114.48,172ZM66.8,327.29H375.25c-9.88-19.85-19.31-38.83-28.8-57.76-.46-.92-1.55-2.14-2.36-2.16-7-.11-14.53-1.52-20.76.69-3.32,1.18-4.38,8.73-6.56,13.63,2.57,1.33,4.11,1.94,5.46,2.84,5.21,3.48,7.21,8.38,6.06,14.51-1.18,6.29-5.1,9.8-11.4,10.56a71,71,0,0,1-8.38.44q-87.55,0-175.1,0a62.84,62.84,0,0,1-9.2-.63c-6.88-1-10.34-5.68-10.79-12.1-.48-6.82,2.61-12,9.63-13.9,3.06-.83,6.25-1.23,9.77-1.9-1.59-4.59-2.45-8.82-4.47-12.4-2.23-4-30.92-3-33,1.07C85.83,288.8,76.61,307.58,66.8,327.29ZM105,449.81c9.23,0,18.46.24,27.67-.18,2.25-.1,4.41-2.38,6.61-3.66-1.34-1.87-2.27-4.54-4.09-5.48C115.18,430.1,95,420,74.88,409.8c-5.45-2.76-7.95-.65-8,5-.1,7.55-.12,15.11,0,22.65.12,8.71,3.34,12.08,12.18,12.31C87.68,450,96.35,449.82,105,449.81Z"/><path class="cls-5" d="M203.3,269.32c-1.16,1.34-2.11,3.26-3.6,3.89-1.07.46-3.82-.43-4.19-1.37-4-10.08-7.79-20.24-11.25-30.51-.35-1,1.46-3.47,2.83-4.22.92-.51,3.79.41,4.17,1.35C195.39,248.48,199.19,258.63,203.3,269.32Z"/><path class="cls-5" d="M253,275.35c-1.05-3.67-2.77-6.29-2.17-8.17,2.93-9.26,6.31-18.4,10-27.41.58-1.43,3.4-2,5.18-2.9.85,2.08,2.86,4.52,2.35,6.16-2.93,9.28-6.35,18.4-9.89,27.46C257.87,272,255.84,272.9,253,275.35Z"/></g><polygon class="cls-6" points="390.45 143.54 209.79 143.54 119.46 300 209.79 456.46 390.45 456.46 412.65 418.01 442.53 469.78 420.34 508.22 179.91 508.22 59.69 300 179.91 91.78 420.34 91.78 442.53 130.22 412.65 181.99 390.45 143.54"/></svg>