<svg id="Layer_1" data-name="Layer 1"
    xmlns="http://www.w3.org/2000/svg"
    xmlns:xlink="http://www.w3.org/1999/xlink" viewBox="0 0 600 600">
    <defs>
        <style>.cls-1{fill:none;}.cls-2{clip-path:url(#clip-path);}.cls-3{fill:#8bc53f;}.cls-4{fill:#fff;}.cls-5{clip-path:url(#clip-path-2);}.cls-6{fill:#faaf40;}</style>
        <clipPath id="clip-path">
            <polygon class="cls-1" points="215.89 446.46 131.34 300 215.89 153.54 385.01 153.54 469.56 300 385.01 446.46 215.89 446.46"/>
        </clipPath>
        <clipPath id="clip-path-2">
            <polygon class="cls-1" points="215.94 1066.46 131.39 920 215.94 773.54 385.06 773.54 469.61 920 385.06 1066.46 215.94 1066.46"/>
        </clipPath>
    </defs>
    <title>10 IconsColor</title>
    <g class="cls-2">
        <path class="cls-3" d="M113,188.67a15.45,15.45,0,0,1,2.41-.37q146.75,0,293.48,0h1.82v161.9c-32.23-8.32-59.73,19.5-55.29,48.07h-28c0,3.35-.05,6.5.08,9.64,0,.32,1.1.85,1.7.86,5.11.07,10.22.12,15.33,0,1.81-.05,2.34.64,2.59,2.3,1.49,10.1,3.08,20.17,4.63,30.26,1,6.8,2.07,13.6,3.15,20.7-.9,0-1.62.12-2.34.12q-108,0-216,0c-10.68,0-21.33-9.34-22.84-19.83a27.91,27.91,0,0,0-.72-3ZM356.16,309.48c-.3-51.76-42.27-94.44-95.2-93.84a94,94,0,1,0,95.2,93.84Z"/>
        <path class="cls-3" d="M398,90.07a35.82,35.82,0,0,1,5.54,2.12c5.17,3,7.61,7.56,7.28,14H295.89c0,3.34,0,6.5.05,9.65,0,.32.67.83,1.08.9a18.4,18.4,0,0,0,2.68,0h111v61h-295c-.89,0-1.79-.12-2.68-.18V117c1-.09,1.91-.26,2.87-.26,10.33,0,20.67,0,31,0,1.85,0,2.42-.55,2.29-2.36a49.33,49.33,0,0,1,0-6.2c.1-1.62-.42-2.12-2.09-2.1-10.41.07-20.82,0-31.22,0a25.1,25.1,0,0,1-2.85-.32v-2.48a11.57,11.57,0,0,0,.64-1.72,13.9,13.9,0,0,1,8.23-10.08c1.28-.59,2.65-1,4-1.46ZM147.66,141.45h2.07c15.68,0,31.35,0,47,0,1.85,0,2.34.53,2.32,2.33-.1,6.76,0,13.53-.07,20.29,0,1.59.42,2.26,2.1,2.16a47.66,47.66,0,0,1,6.21,0c1.83.13,2.36-.51,2.35-2.34q-.12-15.33,0-30.65c0-1.91-.5-2.47-2.43-2.46-13.81.08-27.61,0-41.42,0H139.09c-1.07,0-2-.14-2,1.51.05,10.77,0,21.54,0,32.31,0,1.14.39,1.6,1.58,1.56,2.34-.07,4.7-.11,7,0,1.58.09,2-.48,2-2-.06-6.76,0-13.53,0-20.3Zm184.83,5.14c-.5,10.31,8.84,20.36,20.2,20.24a20.3,20.3,0,0,0-.06-40.6C340.51,126.4,332,136.52,332.49,146.59Z"/>
        <path class="cls-3" d="M517.27,398.3H370.77c-3.66,0-5.46-1.52-5.17-5.27a45.6,45.6,0,0,1,2.07-11.72,33.22,33.22,0,0,1,35.75-21.77,35.81,35.81,0,0,1,13.67,5c1.47.86,2.16.55,3-.73a33.85,33.85,0,0,1,16.32-13.73C453,343.52,472.86,353,478.11,370c.46,1.52,1,3,1.36,4.55.29,1.22.76,1.45,2,1.2a58.87,58.87,0,0,1,10.57-1.61c10.85-.15,21.38,8.14,24.09,18.64C516.6,394.48,516.86,396.23,517.27,398.3Z"/>
        <path class="cls-3" d="M178.69,309.46A83.42,83.42,0,1,1,261.93,393,83.23,83.23,0,0,1,178.69,309.46Zm83.13-65.41c-27.59-1-63.34,21.3-65.44,62.87a65.49,65.49,0,0,0,64.51,68.43c38.77.79,67.19-31.22,66.84-65.53H317.31c0,.59-.07,1-.08,1.4a52.19,52.19,0,0,1-5.93,23.22c-.35.68-1.19,1.54-1.84,1.58a41.52,41.52,0,0,1-15.92-1.8c-8.45-2.88-14.81-8.6-20.65-15-5-5.47-9.69-11.15-14.85-16.41-6.94-7.09-15.11-12.32-25.21-13.44-6.56-.73-13.19-.81-19.79-1.19-.51,0-1-.07-1.72-.12a53.54,53.54,0,0,1,13.78-19.37c10.4-9.35,22.75-13.93,36.72-14.31Z"/>
        <path class="cls-3" d="M362.39,146.52a9.71,9.71,0,1,1-9.78-9.69A9.77,9.77,0,0,1,362.39,146.52Z"/>
        <path class="cls-3" d="M302.55,346.89a52.2,52.2,0,0,1-20.06,14,55.18,55.18,0,0,1-75-59.51c.21-1.46.67-2.3,2.36-2.43,8.5-.62,17-.5,25.25,1.6a31.39,31.39,0,0,1,15,9.18c5.32,5.59,10.36,11.45,15.58,17.13,7.12,7.74,14.95,14.52,25.27,17.64,3.08.92,6.31,1.34,9.47,2Z"/>
    </g>
    <polygon class="cls-4" points="390.65 143.54 209.99 143.54 119.66 300 209.99 456.46 390.65 456.46 412.85 418.01 442.73 469.78 420.54 508.22 180.11 508.22 59.89 300 180.11 91.78 420.54 91.78 442.73 130.22 412.85 181.99 390.65 143.54"/>
    <g class="cls-5">
        <path class="cls-6" d="M534.54,917c-58.69-130.42-143.72-242.7-234.31-355.53-86.94,107.95-170.07,214.63-225.83,339-14.33,32-26.71,67.65-28.18,102.13-6,140.86,109.69,256.93,252.15,258.88C477.85,1264,606.86,1077.65,534.54,917Zm-420.09,2.72c7,4.37,11.67,7.13,16.19,10.08,45.08,29.42,73,29.71,117.39.76a83.47,83.47,0,0,1-23.51-30.63c-36.07,21.18-54.27,16.68-95-20.3,54.77-80.78,110-162.26,165.23-243.73l10.71-.68c56.25,83.2,112.5,166.4,168.1,248.62-34,34.59-59.57,37.4-94.88,12.78l-.6-.43A83.44,83.44,0,0,1,356,928c39.93,29.58,80.88,32.16,123.41,2.6,2.13-1.48,4.89-2.07,9.2-3.82,4.7,12.47,10,23.81,12.91,35.73,1,4.18-2.47,11.84-6.26,14.38-15.08,10.09-31.17,18.64-46.73,28-20.78,12.56-42.29,13.39-60.78-2-55.93-46.55-110.43-46.91-166.53-.24-20.09,16.71-42.4,14.39-64.09-.24C138.7,990,119.38,978.86,97.75,965.48,102.66,952,108.2,936.81,114.45,919.69Zm25.62,218.07c48.14,27.35,85.33,11.21,122.05-15.26,34.14-24.61,50.23-23.36,85.74.48,46.71,31.38,54.68,33.39,102.47,25.88C380.66,1236.26,220.62,1241.55,140.07,1137.76Zm354.68-62.88c-20.44,18.19-48.82,28.14-75,38.75-7,2.85-18.83-3.2-27.28-7.46-11.17-5.62-21.21-13.48-31.71-20.4-37.21-24.53-77-27.76-111.44.09-42.06,34-75.61,29.91-120.08,1-32.9-21.41-37.11-45-38.31-81.34,16.38,10.34,29.52,17.87,41.84,26.54,38.47,27.08,78,28.54,114.26-.93,39.59-32.13,74.88-32.45,114.46,0,35.37,29,74.54,27.72,112.92,2.91,9.82-6.35,20-12.12,30-18.16l7.05,3.18C506.37,1038.14,507.11,1063.87,494.75,1074.88Z"/>
    </g>
</svg>