<svg id="Layer_1" data-name="Layer 1"
    xmlns="http://www.w3.org/2000/svg"
    xmlns:xlink="http://www.w3.org/1999/xlink" viewBox="0 0 600 600">
    <defs>
        <style>.cls-1{fill:none;}.cls-2{clip-path:url(#clip-path);}.cls-3{fill:#8bc53f;}.cls-4{fill:#fff;}.cls-5{clip-path:url(#clip-path-2);}.cls-6{fill:#ee4036;}</style>
        <clipPath id="clip-path">
            <polygon class="cls-1" points="215.89 446.46 131.34 300 215.89 153.54 385.01 153.54 469.56 300 385.01 446.46 215.89 446.46"/>
        </clipPath>
        <clipPath id="clip-path-2">
            <polygon class="cls-1" points="216.66 1066.46 132.1 920 216.66 773.54 385.77 773.54 470.33 920 385.77 1066.46 216.66 1066.46"/>
        </clipPath>
    </defs>
    <title>10 IconsColor</title>
    <g class="cls-2">
        <path class="cls-3" d="M487,208c-4.18,41.62-8.24,81.84-12.24,122.06-3.5,35.34-7.15,70.67-10.28,106-1.35,15.14-.85,15.2-15.52,15.24l-77.17.27c-3.62,0-7.23,0-10.41,0,4-9.87,7.47-18.8,11.35-27.55,1.08-2.44,3-5.39,5.28-6.28,21.67-8.59,24.12-49.81,5-63.22-3-2.11-5.85-6.26-6.35-9.81-5-36-26.93-59.41-57.88-74.59-12.89-6.33-19.22-13.35-18.61-28,.46-11.13-1.87-22.38-3-34.19Z"/>
        <path class="cls-3" d="M120.57,348.92c-.36-20.1,8.23-36,21.5-49.48,49.35-50.22,150.71-49.9,200.07.32,13.22,13.46,20.64,29.38,22,49.16Zm170.74-50.3-12,9.35c7.47,4,25.58-2.58,26.12-8.2.19-1.93-.76-4.82-2.21-5.89-3.65-2.69-7.87-4.59-14.53-8.29C290,292.3,290.73,295.74,291.31,298.62Zm-13.61,16.1-2.89,3.8,14,11.69c1.57-2.18,4.94-5.23,4.39-6.4C290.13,317.45,285.29,313.18,277.7,314.72Zm37.43-2.16-4.34,4.59q6.4,6.54,12.83,13.07l5.18-6.12ZM232,293.4l-.28-6.32-14.74.77.16,5.55Zm-78.44,39.19,5.45-2c-1.4-3.92-2.52-8-4.44-11.6-.32-.62-4.09.59-6.27,1Q150.95,326.29,153.58,332.59Zm23.91-42.06-4.93,4.37c3.06,3.29,6,6.67,9.34,9.67.26.23,3-2.32,4.62-3.58Zm30.12,33.52c-3-2.16-5.7-4.44-6-4.19-3,2.86-5.65,6.11-8.4,9.25,1.64,1.1,4.1,3.51,4.76,3.09C201.15,330.19,203.81,327.41,207.61,324.05Zm94.85,6.48c7.32,9.89,8.69,9.83,16.22,0Z"/>
        <path class="cls-3" d="M121.12,398.44h38.27c35.52,0,71,.41,106.55-.23,11.09-.2,19.79,2.09,26.32,11.33,1.67,2.36,4.3,4,7.74,7.19,15.61-28,41.34-15.78,63.9-18.35C361.54,437,335.53,462,298.5,462.15c-38.17.12-76.33.32-114.5-.07C147.41,461.71,119.77,433.87,121.12,398.44Z"/>
        <path class="cls-3" d="M390.5,198.82c-31.73,0-63.46-.14-95.18.11-7.21,0-10.88-1.49-8.69-9.62a52.92,52.92,0,0,0,1.89-13.4c0-10,3.24-15.46,14.63-14.3,2.75.28,7.31-3.77,8.8-6.89,4.94-10.36,12.63-13.48,23.73-13.35,38.14.47,76.3.35,114.44,0,9.79-.08,17.11,3.06,20.88,12.16,2.74,6.61,7.09,9.36,14.06,8.45,6.07-.8,8.14,1.92,9.43,8,6.06,28.82,6.33,28.76-22.41,28.76Z"/>
        <path class="cls-3" d="M268.25,384.65c-5.38.33-7.87.61-10.35.61-44.52,0-89-.05-133.55,0-8.09,0-16.18-.46-16.23-10.86,0-10.06,7.72-11.56,15.95-11.55,37.73,0,75.46.15,113.18-.09C252.29,362.71,256.45,376.25,268.25,384.65Z"/>
        <path class="cls-3" d="M404.79,134.26H387.92c-.42-1.19-1.24-2.31-1.06-3.22,4-19.94-6.2-33-20-45.59-20.07-18.28-38.85-38-58.15-57.1a12.31,12.31,0,0,1-1.38-2.54l13.27-12C347,40.2,374.34,67.17,401.24,94.53c2.47,2.5,3.19,7.44,3.39,11.32C405.11,114.85,404.79,123.9,404.79,134.26Z"/>
        <path class="cls-3" d="M258.32,162.77c15.05,13,18,28.43,10.11,43-3,5.59-6.95,10.71-10.7,15.87-11.33,15.6-11.37,15.56-9,32.78-9.54-7.18-12.44-15.69-7.92-27a84.35,84.35,0,0,1,10.35-18.64C260.82,195.69,266.29,182,258.32,162.77Z"/>
        <path class="cls-3" d="M332.87,382.65c9.51-6.36,13.33-20.22,28-19.89,7.9.18,14.79,2.12,14.83,11.56,0,9.62-6.71,11.26-14.78,11-9-.28-17.94-.06-26.91-.06Z"/>
        <path class="cls-3" d="M235.74,174.11c11.29,19.86-15.41,30.5-15.9,48.56-4.54-7.36-4-9.37,1.6-19.68C226.69,193.4,231.18,183.39,235.74,174.11Z"/>
        <path class="cls-3" d="M389.67,554.33H387c.05-.22.09-.62.15-.62.84,0,1.68,0,2.51,0Z"/>
        <path class="cls-3" d="M453.32,554.48l-2.66-.17c0-.21.06-.6.08-.6.87,0,1.74.08,2.61.14Z"/>
    </g>
    <polygon class="cls-4" points="390.65 143.54 209.99 143.54 119.66 300 209.99 456.46 390.65 456.46 412.85 418.01 442.73 469.78 420.54 508.22 180.11 508.22 59.89 300 180.11 91.78 420.54 91.78 442.73 130.22 412.85 181.99 390.65 143.54"/>
    <g class="cls-5">
        <path class="cls-6" d="M250.51,1037.67A87,87,0,0,1,221.4,1006C209.76,984.33,207,961,209,937c1.48-17.48,5.61-34.41,13.8-50,4.31-8.21,9.88-15.75,14.86-23.56,7.34,2.63,13.31,6.77,20.7,2.63-1.58-.91-2.87-1.7-4.2-2.41q-21-11.05-41.92-22.09c-5.63-3-6.5-5.51-4-11.39,5.22-12.43,16-18,30.94-15.35,9.28,1.68,18.38,4.32,28.69,6.81l-13.54-14c1-2.2,2.64-5.58,4.23-9,14.63-31.09,29.31-62.16,43.81-93.31,1.34-2.86,2.87-4.1,5.92-3.58,4.56.79,9.13,1.51,14,2.32-3.37-5.11-7.21-9.53-14.27-10.54,3.15-6.72,6.15-13.18,9.18-19.61Q380,540.62,442.72,407.25c3.51-7.45,7.29-9.19,15.36-6.93,1.66.47,3.29,1.06,5,1.63-2.39-5.84-6.12-9-12.72-10.9q13.35-28.41,26.69-56.77c3.29-7,6.54-14,9.92-21,4.56-9.4,13.6-12.95,22.1-8.79,8.3,4.07,11.14,13.22,6.79,22.49Q461.83,441.88,407.72,556.78,344.11,691.69,280.37,826.55c-.49,1-.92,2.09-1.36,3.08,2.69,2.37,5.3,4.49,7.7,6.84a20.18,20.18,0,0,1,3.49,25.32c-1.38,2.41-3.09,4.63-4.47,7-2.44,4.23-5.58,7.08-11.22,5.72,3.72,12.39.38,23.61-3.38,34.74-.53,1.57-1.86,2.92-3,4.24-27.31,32.9-34.64,69.61-20.08,110,9.12,25.28,29,39.25,53.5,47.54a46.3,46.3,0,0,1,10.2,4.27c-9.61,3.69-19.07,7.81-28.84,11-37.26,12.08-74,10.22-109.39-6.51-33.82-16-52.88-44.06-62.49-79.41-11.34-41.71-.42-78,26.74-110.31,13.88-16.52,30.44-29.94,48.63-41.43a2.19,2.19,0,0,1,1.61-.37c-5.09,4.68-10.42,9.13-15.24,14.08-24.13,24.78-39.77,54-43.06,88.68-5.06,53.32,14.91,95.76,66.38,122,14.8,7.54,30.23,10.64,46.46,11.13,7.5.23,15,0,21.07,0-12-2.43-25.68-3.78-38.42-8.08-34-11.47-63.72-29.62-78.13-64.38C126,961,135.14,895,192.6,854.92c2.52-1.76,5.28-3.19,7.7-5.07,3.76-2.92,7.31-3.23,12.23,1.67-1.21.56-2.86.88-3.85,1.87-29.11,28.84-42.48,64-40.7,104.7,1.6,36.49,14.65,68.25,40.33,94.67,12.75,13.12,28.54,20,45.83,24.4,5.89,1.48,11.75,3.06,17.69,4.2-9.21-4.4-18.52-8.6-27.62-13.22-40.8-20.73-61.7-55.17-67.26-99.57-4-32.21,2.35-62.46,20.7-89.51,6.19-9.12,14-17.13,21-25.53l12.26,6.15a9.27,9.27,0,0,1-.88,1.64c-16.3,18.63-24.11,40.92-27.45,64.95-3,21.61-2.91,43.25,2.54,64.55,4,15.57,11.11,29.45,24.86,38.6,6.08,4,13.13,6.62,19.74,9.87C250,1038.75,250.26,1038.21,250.51,1037.67Z"/>
    </g>
</svg>