<svg id="Layer_1" data-name="Layer 1"
    xmlns="http://www.w3.org/2000/svg"
    xmlns:xlink="http://www.w3.org/1999/xlink" viewBox="0 0 600 600">
    <defs>
        <style>.cls-1{fill:none;}.cls-2{clip-path:url(#clip-path);}.cls-3{fill:#faaf40;}.cls-4{fill:#fff;}</style>
        <clipPath id="clip-path">
            <polygon class="cls-1" points="216.72 445.7 132.38 299.62 216.72 153.54 385.4 153.54 469.74 299.62 385.4 445.7 216.72 445.7"/>
        </clipPath>
    </defs>
    <title>10 IconsColor</title>
    <g class="cls-2">
        <path class="cls-3" d="M303.73,441.7a95.2,95.2,0,0,1-.14-190.39c52.88,0,95.59,42.49,95.62,95.12A95.28,95.28,0,0,1,303.73,441.7Z"/>
        <path class="cls-3" d="M402.35,322.75c-14.61-55.62-69-87.24-122.44-74.2-50,12.2-83.12,61.18-75.76,111.92a100.83,100.83,0,0,0,102,86.84c54.3-1.19,97.18-44.68,99.48-99a19.44,19.44,0,0,0,1.1,2.13,27.85,27.85,0,0,0,13,10.64c2,.77,2.54,1.86,2.54,3.93-.08,19,0,38-.11,57a8.43,8.43,0,0,1-1.41,4.52c-23.42,33.17-54.93,54.11-95.24,59.77-54.34,7.62-99-10.86-133.56-53.38a11.61,11.61,0,0,1-2.35-6.81c-.14-35.6-.06-71.21-.17-106.82a6.44,6.44,0,0,1,3-5.85c14.93-11.23,22.53-26.31,22.81-45q.22-14.27,0-28.51a6.83,6.83,0,0,1,3.06-6.32c21.06-15.7,44.48-25.5,70.7-27.94,47.52-4.42,87.51,11.2,120.21,45.88,2,2.08,2.35,4,2,6.77-2.78,19.79-5.35,39.61-8,59.41C403,319.24,402.71,320.69,402.35,322.75Z"/>
        <path class="cls-3" d="M141.34,184.2c5.52,18,5.51,36.91,7.74,55.61h12.16c2.37-18.58,2.22-37.6,7.82-55.68l1.64-.13c.71,2,1.76,4,2.06,6.09q2.46,17.26,4.59,34.59c.62,5,.9,10,1.34,15.18H191c2.29-18.69,2.27-37.67,7.75-55.74h1.74c.66,2.89,1.69,5.75,1.93,8.67,1.9,23,3.61,45.92,5.49,68.88.59,7.25.82,14.42-1.84,21.35-3.81,9.91-10.41,17.35-20.16,21.62-2.76,1.21-3.29,2.71-3.28,5.42q.1,93.9,0,187.8a24.32,24.32,0,0,1-.26,4.91,12.7,12.7,0,0,1-13.6,10.16c-6.68-.76-11.23-6-11.23-13q0-94.29.06-188.57c0-3.57-.84-5.37-4.27-7.1-14.12-7.12-22.17-18.93-21.38-34.76,1.29-26,3.82-52,5.93-78,.2-2.43,1.13-4.79,1.71-7.18Z"/>
        <path class="cls-3" d="M440.32,177.8c.94,3.63,2.12,6.57,2.42,9.6,1.63,16.88,3.61,33.75,4.45,50.67,4.34,87.21,5.07,174.51,6.08,261.8.12,9.76-5.4,15.54-14,14.8a12.07,12.07,0,0,1-11-10.79c-.16-1.63-.12-3.29-.12-4.93q0-73,.06-146c0-3.35-.67-4.53-4.36-5.22-16.79-3.13-14.59-1.14-13.29-17,2.3-28,5.09-56,8.95-83.76,2.57-18.47,7.13-36.69,11.32-54.89,1-4.38,4.06-8.3,6.3-12.35C437.49,179.08,438.57,178.83,440.32,177.8Z"/>
    </g>
    <polygon class="cls-4" points="390.55 143.54 209.89 143.54 119.56 300 209.89 456.46 390.55 456.46 412.75 418.01 442.63 469.78 420.43 508.22 180 508.22 59.79 300 180 91.78 420.43 91.78 442.63 130.22 412.75 181.99 390.55 143.54"/>
</svg>