<svg id="Layer_1" data-name="Layer 1" xmlns="http://www.w3.org/2000/svg" xmlns:xlink="http://www.w3.org/1999/xlink" viewBox="0 0 600 600"><defs><style>.cls-1{fill:none;}.cls-2{clip-path:url(#clip-path);}.cls-3{fill:#ee4036;}.cls-4{fill:#fff;}</style><clipPath id="clip-path"><polygon class="cls-1" points="215.67 446.46 131.12 300 215.67 153.54 384.78 153.54 469.34 300 384.78 446.46 215.67 446.46"/></clipPath></defs><title>10 IconsColor</title><g class="cls-2"><path class="cls-3" d="M138.41,213.87H461.65c.12,1.7.34,3.41.35,5.13,0,8.68.29,17.37-.13,26a14.11,14.11,0,0,1-3.3,8.16c-5.83,6.44-9,13.23-9,22.39.28,94.35-.4,188.7.53,283,.27,26.66-17.79,42.51-42.72,42.34-50.28-.35-100.56-.11-150.84-.11-21.12,0-42.26.29-63.37-.16-6.89-.15-14.26-1-20.51-3.7-14.82-6.29-22-18.18-22-34.49q.11-100.24,0-200.49c0-29.16-.25-58.31.16-87.46a26.51,26.51,0,0,0-8.09-20.22A14,14,0,0,1,138.3,243C138.66,233.42,138.41,223.79,138.41,213.87ZM217,290.79V519.88H245V290.79Zm69.85-.07V519.8h27.89V290.72Zm106,114.78c0-36.49-.06-73,.09-109.48,0-4.25-1.06-5.82-5.48-5.55a144.79,144.79,0,0,1-18.16,0c-4.37-.27-5.53,1.19-5.51,5.49.18,29.46.09,58.92.09,88.38q0,65.3-.06,130.6c0,4,1,5.56,5.19,5.34a166.5,166.5,0,0,1,18.15,0c4.54.27,5.81-1.27,5.79-5.79C392.76,478.17,392.83,441.84,392.83,405.5Z"/><path class="cls-3" d="M124.56,205.31V183.5h5.9c26,0,52-.08,78.07.08,4,0,6-.94,7.22-5.08,5.55-18.55,24.68-34,44-34.46,27-.6,54-.74,81,.05,19,.55,39.24,15.46,44.32,35.25.85,3.27,2.4,4.26,5.78,4.24,26.51-.15,53-.08,79.54-.08h5.54v21.81Zm120.07-22.19H355.84c-4.23-7.84-10.43-12.34-18.54-12.6-18.62-.6-37.27-.52-55.91-.6a167.13,167.13,0,0,0-18.6.6C254.89,171.36,248.83,175.43,244.63,183.12Z"/></g><polygon class="cls-4" points="390.87 143.54 210.21 143.54 119.88 300 210.21 456.46 390.87 456.46 413.07 418.01 442.95 469.78 420.76 508.22 180.33 508.22 60.11 300 180.33 91.78 420.76 91.78 442.95 130.22 413.07 181.99 390.87 143.54"/></svg>