<svg id="Layer_1" data-name="Layer 1" xmlns="http://www.w3.org/2000/svg" viewBox="0 0 197.82 168.15"><defs><style>.cls-1{fill:#00a79d;}</style></defs><title>Final Logo_With Breathing Space</title><polygon class="cls-1" points="61.99 132.06 52.68 132.06 52.68 122.75 47.44 122.75 47.44 141.37 44.42 141.37 47.44 146.6 52.68 146.6 52.68 137.29 61.99 137.29 61.99 146.6 67.22 146.6 67.22 122.75 61.99 122.75 61.99 132.06"/><path class="cls-1" d="M33.47,128h8.36l3-5.23H33.47a11.93,11.93,0,0,0,0,23.85H44.85l-3-5.23H33.47a6.7,6.7,0,0,1,0-13.39Z"/><polygon class="cls-1" points="128.8 141.37 121.46 141.37 121.46 122.75 116.22 122.75 116.22 146.6 131.82 146.6 139.56 133.22 144.26 141.37 137.44 141.37 134.41 146.6 153.33 146.6 139.56 122.75 128.8 141.37"/><path class="cls-1" d="M176.27,130a7.26,7.26,0,0,0-7.27-7.27H157.65v18.62H152.9l3,5.23H169a7.28,7.28,0,0,0,5.59-11.93A7.23,7.23,0,0,0,176.27,130ZM169,141.37h-6.12v-4.08H169a2,2,0,0,1,0,4.08Zm0-9.31h-6.12V128H169a2,2,0,0,1,0,4.08Z"/><polygon class="cls-1" points="74.49 141.37 74.49 137.29 87.88 137.29 87.88 132.06 74.49 132.06 74.49 127.98 84.3 127.98 87.32 122.75 69.26 122.75 69.26 146.6 87.53 146.6 84.51 141.37 74.49 141.37"/><polygon class="cls-1" points="102.05 139.9 95.36 122.75 90.13 122.75 90.13 141.37 87.1 141.37 90.13 146.6 95.36 146.6 95.36 136.16 99.44 146.6 104.67 146.6 108.75 136.16 108.75 146.6 113.98 146.6 113.98 122.75 108.75 122.75 102.05 139.9"/><polygon class="cls-1" points="119.98 106.6 77.84 106.6 56.78 70.11 77.84 33.62 119.98 33.62 125.15 42.59 132.12 30.51 126.95 21.55 70.87 21.55 42.84 70.11 70.87 118.67 126.95 118.67 132.12 109.7 125.15 97.63 119.98 106.6"/><path class="cls-1" d="M98.91,54.67h19.27l7-12.08H98.91a27.52,27.52,0,0,0,0,55h26.24l-7-12.07H98.91a15.44,15.44,0,0,1,0-30.88Z"/></svg>