<svg id="Layer_1" data-name="Layer 1" xmlns="http://www.w3.org/2000/svg" xmlns:xlink="http://www.w3.org/1999/xlink" viewBox="0 0 600 600"><defs><style>.cls-1{fill:none;}.cls-2{clip-path:url(#clip-path);}.cls-3{fill:#faaf40;}.cls-4{fill:#fff;}</style><clipPath id="clip-path"><polygon class="cls-1" points="215.94 446.46 131.39 300 215.94 153.54 385.06 153.54 469.61 300 385.06 446.46 215.94 446.46"/></clipPath></defs><title>10 IconsColor</title><g class="cls-2"><path class="cls-3" d="M264.06,311.37a65.35,65.35,0,0,0,101.78-54.24c0-36.09-65.34-113.59-65.34-113.59S235.16,221,235.16,257.13a65.4,65.4,0,0,0,28.9,54.24Z"/><path class="cls-3" d="M534.54,297C475.85,166.55,390.82,54.27,300.23-58.56,213.29,49.39,130.16,156.07,74.4,280.49c-14.33,32-26.71,67.65-28.18,102.13-6,140.86,109.69,256.93,252.15,258.88C477.85,644,606.86,457.65,534.54,297Zm-420.09,2.72c7,4.37,11.67,7.13,16.19,10.08,45.08,29.42,73,29.71,117.39.76a83.47,83.47,0,0,1-23.51-30.63c-36.07,21.18-54.27,16.68-95-20.3,54.77-80.78,110-162.26,165.23-243.73l10.71-.68c56.25,83.2,112.5,166.4,168.1,248.62-34,34.59-59.57,37.4-94.88,12.78l-.6-.43A83.44,83.44,0,0,1,356,308c39.93,29.58,80.88,32.16,123.41,2.6,2.13-1.48,4.89-2.07,9.2-3.82,4.7,12.47,10,23.81,12.91,35.73,1,4.18-2.47,11.84-6.26,14.38-15.08,10.09-31.17,18.64-46.73,28-20.78,12.56-42.29,13.39-60.78-2-55.93-46.55-110.43-46.91-166.53-.24-20.09,16.71-42.4,14.39-64.09-.24C138.7,370,119.38,358.86,97.75,345.48,102.66,332,108.2,316.81,114.45,299.69Zm25.62,218.07C188.21,545.11,225.4,529,262.12,502.5c34.14-24.61,50.23-23.36,85.74.48,46.71,31.38,54.68,33.39,102.47,25.88C380.66,616.26,220.62,621.55,140.07,517.76Zm354.68-62.88c-20.44,18.19-48.82,28.14-75,38.75-7,2.85-18.83-3.2-27.28-7.46-11.17-5.62-21.21-13.48-31.71-20.4-37.21-24.53-77-27.76-111.44.09-42.06,34-75.61,29.91-120.08,1-32.9-21.41-37.11-45-38.31-81.34,16.38,10.34,29.52,17.87,41.84,26.54,38.47,27.08,78,28.54,114.26-.93,39.59-32.13,74.88-32.45,114.46,0,35.37,29,74.54,27.72,112.92,2.91,9.82-6.35,20-12.12,30-18.16l7.05,3.18C506.37,418.14,507.11,443.87,494.75,454.88Z"/></g><polygon class="cls-4" points="390.6 143.54 209.94 143.54 119.61 300 209.94 456.46 390.6 456.46 412.8 418.01 442.68 469.78 420.49 508.22 180.05 508.22 59.84 300 180.05 91.78 420.49 91.78 442.68 130.22 412.8 181.99 390.6 143.54"/></svg>