<svg id="Layer_1" data-name="Layer 1" xmlns="http://www.w3.org/2000/svg" xmlns:xlink="http://www.w3.org/1999/xlink" viewBox="0 0 600 600"><defs><style>.cls-1{fill:none;}.cls-2{fill:#fff;}.cls-3{clip-path:url(#clip-path);}.cls-4{fill:#ee4036;}</style><clipPath id="clip-path"><polygon class="cls-1" points="215.89 446.46 131.21 300 215.89 153.54 385.01 153.54 469.56 300 385.01 446.46 215.89 446.46"/></clipPath></defs><title>10 IconsColor</title><polygon class="cls-2" points="390.65 143.54 209.99 143.54 119.66 300 209.99 456.46 390.65 456.46 412.85 418.01 442.73 469.78 420.54 508.22 180.1 508.22 59.89 300 180.1 91.78 420.54 91.78 442.73 130.22 412.85 181.99 390.65 143.54"/><g class="cls-3"><path class="cls-4" d="M252.18,479.77c-43.87-26.45-84.09-54.82-111-98.18a109.29,109.29,0,0,1-16.69-59.76c.41-50.55.18-101.1,0-151.65,0-4.17,1.3-5.81,5.18-7.18,42.64-14.94,85.18-30.13,127.79-45.15,2.11-.75,4.8-1.48,6.74-.81,22.67,7.83,45.25,15.93,69.06,24.4-2.88,1.08-4.66,1.79-6.47,2.43C284.1,159,241.38,174.28,198.57,189.28c-4.12,1.44-5.44,3.22-5.42,7.61.2,41.85.1,83.71.16,125.56,0,17.38-.6,34.81.5,52.13,1.73,27,13.24,50.57,29.59,71.68C232.11,457.51,241.93,467.9,252.18,479.77Z"/><path class="cls-4" d="M486.8,289.69c0,22.11-.71,44.25.17,66.32,1.26,31.8-9.9,58.85-29.39,83-28.8,35.71-65.41,61.69-105.37,83.35a6.65,6.65,0,0,1-5.41.22c-45.06-24.67-86.44-53.81-115.65-97.26-13.36-19.89-19.82-41.78-19.57-66,.5-49.82.22-99.64,0-149.46,0-4.41,1.33-6.13,5.42-7.56,42.46-14.9,84.82-30.11,127.29-45a15.94,15.94,0,0,1,9.78,0c42.82,15,85.53,30.27,128.34,45.28,3.66,1.29,4.45,3.11,4.43,6.66C486.73,236.05,486.8,262.87,486.8,289.69Zm-254.5,7c0,21.75,0,43.5,0,65.25a102.07,102.07,0,0,0,.68,13.55c2.53,18.28,11,34,22.14,48.29,24.85,32.07,57,55.34,91.7,75.5,1.38.8,4.25.43,5.7-.51,14.28-9.24,28.84-18.12,42.47-28.25,23.1-17.18,43.85-36.84,58.55-62,8-13.66,12.9-28.23,12.71-44.31s-.06-31.88-.06-47.81c0-31.18-.06-62.35.11-93.53,0-3.92-1.18-5.62-4.91-6.87-36-12.05-71.91-24.38-107.91-36.4a14.47,14.47,0,0,0-8.71.11c-35.9,12.33-71.7,25-107.6,37.3-4,1.38-5,3.35-5,7.4C232.4,248.51,232.3,272.61,232.3,296.72Z"/><path class="cls-4" d="M526.79,580.22l-4.43,5.08c-1-1.6-2.77-3.16-2.88-4.82-.11-1.48,1.58-3.09,2.48-4.64Z"/><path class="cls-4" d="M557.24,580.64l-4.69,4.68c-.94-1.7-2.55-3.37-2.6-5.1-.05-1.44,1.74-2.93,2.72-4.39Z"/><path class="cls-4" d="M369,342.87v54H329.72V343.09H276v-39.2h53.4V249.83H368.8v53.66h53.59v39.38Z"/></g></svg>