<svg id="Layer_1" data-name="Layer 1" xmlns="http://www.w3.org/2000/svg" xmlns:xlink="http://www.w3.org/1999/xlink" viewBox="0 0 600 600"><defs><style>.cls-1{fill:none;}.cls-2{clip-path:url(#clip-path);}.cls-3{fill:#90278e;}.cls-4{fill:#fff;}</style><clipPath id="clip-path"><polygon class="cls-1" points="215.79 446.46 193.71 408.22 131.31 300 193.71 191.78 215.79 153.54 384.9 153.54 469.46 300 384.9 446.46 215.79 446.46"/></clipPath></defs><title>10 IconsColor</title><g class="cls-2"><path class="cls-3" d="M296.52,285.63c25.83.15,51.66.23,77.49-.2,2.76-.05,5.47-3.69,8.2-5.66-2.81-1.88-5.53-5.2-8.44-5.38-10.52-.65-21.1-.26-31.74-.26V262.2c10.84,0,21.15.48,31.37-.3,3.09-.23,5.92-3.94,8.87-6.06-3-1.66-5.88-4.58-8.94-4.75-10.5-.6-21.06-.23-31.5-.23v-12c11.42,0,21.76.44,32-.27,2.91-.21,5.59-3.78,8.37-5.81-2.82-1.83-5.55-5.06-8.47-5.24-10.53-.64-21.13-.25-31.86-.25V214.85c11,0,21.68.43,32.23-.28,2.81-.18,5.39-3.82,8.07-5.87-2.72-1.54-5.4-4.31-8.18-4.42-12.25-.49-24.53-.19-36.8-.23-13.31,0-14.27-2.25-11.4-14.74a145.52,145.52,0,0,0,3.49-33.22c0-3.66-5.21-9.68-8.72-10.23s-8.22,4-11.53,7.28c-1.79,1.75-2,5.35-2.46,8.19-2.48,15.4-9.31,27.61-23.52,35.45-2.83,1.57-5.23,6.55-5.32,10-.5,19.68-.31,39.38-.2,59.08C277.59,273.59,289,285.59,296.52,285.63Z"/><path class="cls-3" d="M264.38,204.8H237.1v62.41h27.28Z"/><path class="cls-3" d="M477.26,408.83c-9.6-.12-19.19,0-28.72,0a36.55,36.55,0,0,1-.37-4.17c1.28-21.56-3.08-28.19-23.53-36.27a15.43,15.43,0,0,1-5.19-3.94c-5-5.35-9.86-10.85-15.23-16.8,61.53-60.72,53.7-149.23,4.66-200.9-48-50.59-128.17-57.47-185.53-16.81C171.56,166.64,137,255.47,196,334.37c-7.83-2.17-14.8-4.32-21.88-6-12-2.88-14-1.28-14.78,11.16-1.55,25.13,1,49,21.18,68.29-12.15,1-23.59,1.14-35,1-7.59-.11-10.18,3.43-9.7,10.8,1.22,18.93,19.06,36.7,38.49,36.74q138.09.29,276.17,0c18.66,0,36-16.34,38.27-34.85C490,411.31,488,409,477.26,408.83Zm-68.4-37.46c3.3,5.85,6.73,8.39,13.55,10,5.31,1.24,11.14,7.45,13.41,12.86,3.56,8.45-2.06,14.52-11.45,14.57-12.87.07-25.76.26-38.62-.18-2.79-.1-6.93-2-8-4.27-5.5-11.72-10.21-23.81-15.6-36.74C374.1,351.82,398.3,352.69,408.86,371.37Zm-44.75,36.81h-101c-2.55-21.24,21.6-43.94,48-45.44C338,361.22,364.44,383.55,364.11,408.18ZM232.88,191c6.78-.12,13.63-.69,20.32.07,11.69,1.33,21.69-1.57,29.63-10.19,3.31-3.6,6.5-7.7,8.33-12.15,2.68-6.5,3.84-13.61,6.08-20.32a23.17,23.17,0,0,1,24.92-15.75c11.52,1.57,19.34,10.5,19.52,22.7.17,11.49,0,23,0,35.58,9.19,0,20.11-.19,31,0,17.9.37,25,10.2,20,27.15-.55,1.88-.07,4.15.28,6.18.37,2.2,1.76,4.37,1.65,6.5C394,242.55,393,254.26,392.33,266c-.13,2.39.71,4.9,1.4,7.26,4,13.6-3.42,24.18-17.57,24.29-28.09.21-56.18.24-84.26-.16-3.6-.05-8.38-2.24-10.51-5-8.05-10.55-18.17-14.21-31-12.53-5.71.74-11.62-.12-17.41.19-6.21.34-8.88-2.29-8.86-8.44.09-23.89.13-47.78,0-71.66C224,193.65,227.14,191.09,232.88,191ZM219.73,335.86c3.62-7.51,7.67-14.8,12.13-23.36,14.33,12.63,25.66,25.52,31.88,42.29,3.09,8.32,2.74,15.57-3.31,23.28-4.78,6.1-6.75,14.38-10.18,21.58-1.49,3.15-3.15,8.24-5.38,8.62-6,1-13,2.46-17.23-4.75C215.1,382.1,208.09,360,219.73,335.86Zm-46.67,4.51c8.66,3.2,17.21,6.21,25.61,9.61a5.69,5.69,0,0,1,2.88,4.36c-1.12,19.16,4.76,36.57,13.69,53.34C189.63,411.8,164.86,372.93,173.06,340.37ZM445.13,444.45q-61.54.12-123.07,0-71.24,0-142.45,0c-15.83,0-26.5-8.07-29.73-22.42h325C471.61,436.41,461,444.42,445.13,444.45Z"/><path class="cls-3" d="M307.14,391.41h12.08V374.66H307.14Z"/><path class="cls-3" d="M273.89,389.41l11.62,12.16,9.46-7.78-12.79-13.43Z"/><path class="cls-3" d="M331.91,394.12l9.14,7.42,11.67-10.8-6.4-8.56Z"/></g><polygon class="cls-4" points="390.76 143.54 210.1 143.54 119.77 300 210.1 456.46 390.76 456.46 412.96 418.01 442.84 469.78 420.64 508.22 180.21 508.22 60 300 180.21 91.78 420.64 91.78 442.84 130.22 412.96 181.99 390.76 143.54"/></svg>