<?xml version="1.0" encoding="utf-8"?>
<!-- Generator: Adobe Illustrator 24.0.1, SVG Export Plug-In . SVG Version: 6.00 Build 0)  -->
<svg version="1.1" id="Layer_1" xmlns="http://www.w3.org/2000/svg" xmlns:xlink="http://www.w3.org/1999/xlink" x="0px" y="0px"
	 viewBox="0 0 600 600" style="enable-background:new 0 0 600 600;" xml:space="preserve">
<style type="text/css">
	.st0{fill:#FFFFFF;}
	.st1{fill:#90278E;}
	.st2{fill:#EE4036;}
	.st3{fill:#FAAF40;}
	.st4{fill:#8BC53F;}
</style>
<g>
	<path class="st0" d="M250.41,424.56c-1.03,0-1.79,0-2.54,0c-19.72,0-39.44-0.02-59.16,0.01c-10.39,0.02-19.86-3.01-28.62-8.46
		c-11-6.85-19.44-16.26-26.57-26.93c-8.95-13.4-15.25-28.04-20.11-43.35c-3.98-12.53-6.83-25.34-8.72-38.33
		c-2.73-18.85-3.98-37.82-2.79-56.85c0.7-11.21,1.59-22.45,3.19-33.56c2.95-20.54,8.42-40.44,17.12-59.34
		c6.22-13.52,13.94-26.1,24.59-36.66c8.92-8.84,19.13-15.5,31.63-18.05c3.09-0.63,6.3-0.98,9.45-0.98
		c57.82-0.06,115.65-0.04,173.47-0.04c16.47,0,32.95,0.07,49.42-0.02c13.78-0.07,25.62,4.93,36.17,13.45
		c11.83,9.56,20.32,21.72,27.31,35.06c8.36,15.95,13.86,32.89,17.75,50.4c2.37,10.66,4.24,21.42,4.96,32.32
		c0.74,11.21,1.42,22.45,1.49,33.68c0.2,31.87,0.07,63.74,0.07,95.61c0,41.09,0,82.19-0.01,123.28c0,7.97-5.25,13.19-13.26,13.19
		c-32.89,0-65.78,0.01-98.66,0.01c-41.03,0-82.06,0-123.09-0.01c-7.85,0-13.1-5.29-13.1-13.17c0.01-19.66,0.01-39.31,0.01-58.97
		C250.41,426.17,250.41,425.48,250.41,424.56z M235.34,126.82c1,1.26,1.75,2.19,2.49,3.12c0.78,1,1.57,2,2.32,3.02
		c9.83,13.38,16.71,28.27,21.97,43.91c5.1,15.17,8.45,30.76,10.52,46.65c1.79,13.77,2.62,27.58,2.59,41.46
		c-0.05,20.35-0.04,40.71-0.05,61.06c-0.01,47.52,0,95.04-0.01,142.56c0,1.82,0,3.64,0,5.49c66.34,0,132.39,0,198.55,0
		c0-0.92,0-1.68,0-2.43c0-21.88,0-43.77,0-65.65c0-43.39-0.01-86.77,0-130.16c0-13.86,0.29-27.74-1.56-41.52
		c-1.27-9.42-2.54-18.87-4.46-28.17c-2.93-14.18-7.42-27.9-13.84-40.93c-5.54-11.25-12.17-21.74-21.89-29.92
		c-6.45-5.43-13.67-8.63-22.4-8.57c-24.74,0.19-49.48,0.07-74.21,0.07c-32.57,0-65.14,0-97.71,0
		C237.02,126.82,236.39,126.82,235.34,126.82z M250.83,263.38c-0.64-9.57-1.18-19.15-1.95-28.71c-0.83-10.39-2.57-20.64-4.97-30.78
		c-4.3-18.12-10.36-35.54-20.49-51.32c-5.72-8.9-12.43-16.9-21.89-22.12c-7.01-3.87-14.33-4.9-21.96-1.98
		c-9.89,3.79-16.93,11.05-23.01,19.34c-8.02,10.94-13.59,23.15-17.98,35.92c-4.03,11.71-7.11,23.7-8.77,35.96
		c-1.41,10.44-2.42,20.94-3.12,31.45c-1.02,15.39-0.19,30.75,1.67,46.05c1.47,12.1,3.78,24.04,7.14,35.77
		c4.13,14.4,9.58,28.22,17.71,40.86c5.83,9.07,12.62,17.25,22.33,22.47c6.93,3.72,14.12,4.64,21.65,1.81
		c8.45-3.18,14.8-9.08,20.35-15.86c7.46-9.11,12.85-19.46,17.24-30.34c5.84-14.46,9.71-29.47,12.2-44.84
		C249.32,292.61,250.44,278.05,250.83,263.38z M250.27,399.66c0-7.31,0-14.48,0-21.36c-4.72,7.03-9.53,14.21-14.33,21.36
		C240.54,399.66,245.33,399.66,250.27,399.66z"/>
	<path class="st0" d="M225.79,263.31c-0.2,11.6-1.81,22.93-5.87,33.81c-3.06,8.19-7.42,15.52-14.07,21.43
		c-9.96,8.86-24.71,8.96-34.8,0.13c-7.97-6.98-12.58-15.95-15.66-25.85c-3.78-12.16-4.8-24.61-3.95-37.28
		c0.72-10.74,2.92-21.1,7.4-30.91c3.29-7.19,7.68-13.61,14.26-18.26c9.73-6.87,20.78-6.89,30.53-0.05
		c5.03,3.53,8.77,8.25,11.79,13.55c5.44,9.52,8.14,19.9,9.4,30.69C225.32,254.8,225.48,259.06,225.79,263.31z M200.8,263.23
		c0.08-7.16-0.8-14.2-2.77-21.06c-1.53-5.31-3.46-10.5-7.33-14.67c-1.79-1.93-3.14-1.99-4.7,0.12c-1.72,2.33-3.45,4.74-4.63,7.37
		c-4.57,10.17-5.77,20.98-5.35,32c0.32,8.55,1.77,16.91,5.39,24.72c1.24,2.67,3.02,5.12,4.8,7.49c1.38,1.83,2.86,1.84,4.27,0.05
		c1.71-2.18,3.41-4.46,4.58-6.95C199.4,283.11,200.74,273.29,200.8,263.23z"/>
</g>
</svg>
