<?xml version="1.0" encoding="utf-8"?>
<!-- Generator: Adobe Illustrator 24.0.1, SVG Export Plug-In . SVG Version: 6.00 Build 0)  -->
<svg version="1.1" id="Layer_1" xmlns="http://www.w3.org/2000/svg" xmlns:xlink="http://www.w3.org/1999/xlink" x="0px" y="0px"
	 viewBox="0 0 600 600" style="enable-background:new 0 0 600 600;" xml:space="preserve">
<style type="text/css">
	.st0{fill:#FFFFFF;}
	.st1{fill:#90278E;}
	.st2{fill:#EE4036;}
	.st3{fill:#FAAF40;}
	.st4{fill:#8BC53F;}
</style>
<g>
	<path class="st0" d="M281.26,454.96c-13.84-4.32-26.92-9.95-38.92-17.98c-13.25-8.86-24.59-19.71-33.76-32.74
		c-1.77-2.52-3.56-3.65-6.81-3.6c-14.53,0.22-29.06,0.1-43.93,0.1c0-13.46,0-26.77,0-40.38c43.72,0,87.51,0,131.54,0
		c0,13.3,0,26.51,0,40.25c-8.82,0-17.73,0-27.87,0c8.71,6.65,17.35,10.49,26.47,13.28c0.85,0.26,2.31-0.73,3.2-1.48
		c13.18-11.03,31.18-11.14,44.06-0.03c1.93,1.66,3.52,1.72,5.68,0.91c34.97-13.12,55.55-38.01,59.84-75.22
		c2.94-25.53-5.05-48.08-22.07-67.37c-0.65-0.74-1.23-1.55-1.9-2.26c-3.25-3.47-5.98-6.2-12.02-4.34
		c-10.94,3.38-21.04-0.26-29.74-7.15c-6.14,6.18-12.19,12.27-19.24,19.36c1.6,1.22,3.56,2.38,5.1,3.96
		c3.31,3.39,3.37,7.3,0.43,10.12c-2.82,2.7-6.51,2.56-9.83-0.54c-2.58-2.41-5.05-4.93-7.49-7.48c-2.34-2.44-4.58-4.98-7.17-7.8
		c-1.57,1.47-2.69,2.47-3.74,3.52c-11.38,11.37-22.75,22.76-34.13,34.13c-5.17,5.16-8.07,5.18-13.13,0.11
		c-9.08-9.08-18.16-18.17-27.24-27.25c-4.76-4.77-4.82-7.78-0.09-12.51c12.46-12.48,24.96-24.92,37.91-37.85
		c-4.92-4.9-9.81-9.52-14.36-14.45c-1.52-1.64-3.09-4.11-2.99-6.13c0.09-1.95,1.91-4.69,3.68-5.45c1.91-0.83,4.93-0.37,6.92,0.62
		c2.27,1.13,3.94,3.47,6.4,5.78c2.65-2.8,5.08-5.51,7.65-8.08c26.92-26.97,53.86-53.92,80.79-80.88c4.47-4.48,7.64-4.47,12.19,0.1
		c2.37,2.38,4.68,4.82,7.47,7.69c7.38-7.49,14.38-14.61,21.39-21.71c2.38-2.41,4.73-4.86,7.2-7.17c3.73-3.49,7.03-3.44,10.68,0.18
		c7.41,7.36,14.79,14.75,22.16,22.15c3.96,3.98,4.01,7.27,0.03,11.29c-8.53,8.63-17.15,17.18-25.73,25.77
		c-0.69,0.69-1.34,1.42-3.15,3.35c2.75,2.23,5.6,4.27,8.12,6.67c4.59,4.37,4.5,7.61-0.06,12.18c-7.27,7.29-14.57,14.55-21.18,21.15
		c2.46,6.13,4.6,11.81,7.06,17.35c0.75,1.69,2.23,3.2,3.7,4.41c18.19,15.05,31.66,33.46,39.74,55.71
		c9.58,26.38,10.72,53.17,2.79,80.06c-10.45,35.43-32.38,61.75-65.05,78.82c-8.38,4.38-17.52,7.28-26.18,10.81
		c10.93,0,22.16,0.12,33.39-0.06c3.95-0.06,6.61,1.28,8.76,4.6c6.04,9.34,12.26,18.56,18.47,27.78c1.79,2.65,3.03,5.71,0.84,8.16
		c-1.63,1.83-4.64,3.41-7.04,3.42c-57.85,0.19-115.71,0.19-173.56,0c-2.4-0.01-5.41-1.6-7.03-3.44c-2.18-2.45-0.92-5.51,0.86-8.16
		c6.3-9.34,12.58-18.68,18.72-28.12c1.99-3.05,4.51-4.26,8.1-4.23C258.54,455.04,269.9,454.96,281.26,454.96z M390.95,181.3
		c-13.85-13.93-27.41-27.56-40.55-40.78c-27.89,27.87-56.09,56.05-83.86,83.8c13.4,13.34,27.03,26.9,40.91,40.71
		c4.93-4.98,10.15-10.53,15.69-15.73c2.61-2.44,3.29-4.55,2.04-8.04c-3.18-8.82-2.09-17.54,2.24-25.73
		c7.88-14.89,24.4-21.41,40.63-16.41c1.54,0.47,4.03,0.79,4.93-0.06C379.33,193.13,385.39,186.87,390.95,181.3z M389.78,243.04
		c-2.7,4.29-5,7.95-7.33,11.65c56.99,53.73,35.56,147.01-36.93,171.57c0.73,4.33,1.46,8.66,2.28,13.52
		c41.37-14.91,68.52-42.86,77.84-85.78C435.03,310.72,421.59,273.87,389.78,243.04z M238.2,485.16c50.34,0,100.04,0,150.25,0
		c-3.25-4.89-6.31-9.25-9.09-13.78c-1.33-2.18-2.84-2.96-5.42-2.94c-13.68,0.14-27.37-0.01-41.06,0.13c-2.75,0.03-5.6,0.5-8.2,1.37
		c-7.64,2.55-15.17,2.68-22.76-0.06c-1.69-0.61-3.49-1.3-5.25-1.32c-14.96-0.1-29.91-0.09-44.87,0.01c-1.2,0.01-2.87,0.58-3.51,1.47
		C244.89,474.83,241.74,479.81,238.2,485.16z M252.08,298.48c11.21-11.25,22.5-22.58,33.46-33.57
		c-6.38-6.35-13.14-13.08-19.64-19.56c-11.04,11.05-22.35,22.36-33.39,33.41C238.98,285.29,245.7,292.06,252.08,298.48z
		 M171.25,386.9c35.1,0,69.84,0,104.47,0c0-4.59,0-8.87,0-13.05c-34.99,0-69.63,0-104.47,0
		C171.25,378.25,171.25,382.43,171.25,386.9z M292.99,437.69c-0.14,11.07,8.86,20.45,19.79,20.66c11.29,0.21,20.73-8.84,20.86-20.01
		c0.13-11.09-8.84-20.45-19.79-20.66C302.58,417.47,293.13,426.53,292.99,437.69z M357.19,251.65c11.04,0.06,20.41-9.06,20.49-19.96
		c0.09-11.52-9.08-20.74-20.59-20.72c-10.71,0.02-19.94,9.21-20.07,19.96C336.9,242.2,346.04,251.59,357.19,251.65z M222.73,400.76
		c15.41,18.95,33.86,31.68,56.23,38.71c0.75-4.76,1.42-9.02,2.12-13.51c-14.95-5.04-28-13.1-39.26-24.06
		c-0.7-0.68-1.97-1.07-2.98-1.09C233.79,400.7,228.72,400.76,222.73,400.76z M387.65,156.35c7.84-7.82,15.77-15.73,23.32-23.27
		c-4.26-4.32-8.75-8.88-12.88-13.07c-7.74,7.72-15.67,15.63-23.47,23.41C378.85,147.62,383.32,152.06,387.65,156.35z"/>
	<path class="st0" d="M255.66,333.22c0,4.48,0,8.55,0,12.97c-22.41,0-44.72,0-67.36,0c0-4.15,0-8.42,0-12.97
		C210.63,333.22,232.94,333.22,255.66,333.22z"/>
	<path class="st0" d="M320.09,437.96c0.01,3.71-2.92,6.73-6.61,6.82c-3.84,0.09-7.02-3.08-6.92-6.93c0.09-3.71,3.07-6.61,6.81-6.61
		C316.96,431.24,320.08,434.35,320.09,437.96z"/>
	<path class="st0" d="M364.14,231.32c0,3.66-3.03,6.73-6.68,6.78c-3.84,0.05-6.99-3.16-6.87-7c0.11-3.68,3.2-6.61,6.88-6.55
		C361.16,224.61,364.14,227.63,364.14,231.32z"/>
</g>
</svg>
