<?xml version="1.0" encoding="utf-8"?>
<!-- Generator: Adobe Illustrator 24.0.1, SVG Export Plug-In . SVG Version: 6.00 Build 0)  -->
<svg version="1.1" id="Layer_1" xmlns="http://www.w3.org/2000/svg" xmlns:xlink="http://www.w3.org/1999/xlink" x="0px" y="0px"
	 viewBox="0 0 600 600" style="enable-background:new 0 0 600 600;" xml:space="preserve">
<style type="text/css">
	.st0{fill:#FFFFFF;}
	.st1{fill:#90278E;}
	.st2{fill:#EE4036;}
	.st3{fill:#FAAF40;}
	.st4{fill:#8BC53F;}
</style>
<g>
	<path class="st0" d="M342.15,118.82c0,2.01,0,3.81,0,5.6c0,43.82-0.05,87.64,0.1,131.46c0.01,3.1,0.77,6.53,2.23,9.24
		c32.72,60.73,65.57,121.39,98.44,182.04c3.94,7.27,7.25,14.75,6.71,23.21c-0.91,14.25-13.09,25.9-29.37,28.34
		c-3.04,0.46-6.15,0.72-9.23,0.72c-74.19,0.04-148.38,0.13-222.56-0.16c-6.31-0.02-13.14-1.58-18.82-4.31
		c-18.64-8.95-24.39-26.89-14.7-45.15c13.94-26.3,28.33-52.37,42.49-78.56c19.18-35.45,38.34-70.9,57.43-106.39
		c1.07-1.99,2.01-4.38,2.02-6.58c0.11-45.82,0.08-91.64,0.06-137.46c0-0.54-0.12-1.08-0.21-1.91c-3.62-1.2-7.4-2.13-7.46-7.5
		c-0.11-9.15,1.26-10.87,10.48-10.87c26.91-0.01,53.82,0.02,80.73-0.02c4.54-0.01,8.46,0.58,9.15,6.18
		C350.58,114.25,349.19,116.72,342.15,118.82z M246.88,309.74c-7.65,14.03-15.38,28.19-23.1,42.36
		c-16.59,30.44-33.29,60.82-49.73,91.35c-9.52,17.69-3.22,34.77,15.52,42.02c4.27,1.65,9.18,2.31,13.79,2.32
		c62.9,0.15,125.81,0.1,188.72,0.1c4.18,0,8.37,0.11,12.54-0.06c17.83-0.73,31.12-14.29,29.03-30.33
		c-0.71-5.42-3.02-10.84-5.55-15.77c-10.62-20.66-21.62-41.12-32.46-61.67c-13.89-26.32-27.73-52.67-41.66-78.98
		c-6.18-11.68-12.25-13.58-23.94-7.33c-6.72,3.59-13.15,7.72-19.83,11.39c-12.88,7.07-26.64,10.74-41.36,9.04
		C261.69,313.36,254.69,311.36,246.88,309.74z M327.34,186.24c0-18.72,0.01-37.45-0.01-56.17c0-1.81,0.43-3.97-0.38-5.36
		c-1.13-1.94-3.23-4.55-4.95-4.59c-2.12-0.04-4.67,1.93-6.28,3.72c-0.97,1.08-0.67,3.45-0.67,5.25
		c-0.03,37.99-0.03,75.99,0.01,113.98c0,1.96-0.19,4.43,0.85,5.76c1.38,1.75,4.01,3.7,5.91,3.53c1.87-0.17,3.92-2.65,5.1-4.59
		c0.83-1.37,0.41-3.54,0.41-5.35C327.35,223.68,327.34,204.96,327.34,186.24z"/>
	<path class="st0" d="M264.93,390.01c-10.54,0.23-15.69-2.36-18.21-9.14c-2.05-5.52-0.31-12.07,4.2-15.79
		c4.69-3.87,11.78-4.36,16.78-1.15c6.01,3.85,7.69,9.68,5.55,18.15c6.37,0,13.06-0.96,19.32,0.26c6.86,1.33,11.48,6.68,14.27,13.17
		c4.32,10.06,0.87,22.3-7.96,28.71c-9.09,6.6-21.13,6.22-29.74-0.92C259.5,415.29,258.1,404.2,264.93,390.01z"/>
	<path class="st0" d="M322.39,356.69c-4.34,0.02-8.38-3.89-8.51-8.25c-0.14-4.52,4.1-8.73,8.67-8.61c4.48,0.12,8.25,4.02,8.19,8.48
		C330.68,352.71,326.74,356.66,322.39,356.69z"/>
</g>
</svg>
