<?xml version="1.0" encoding="utf-8"?>
<!-- Generator: Adobe Illustrator 24.0.1, SVG Export Plug-In . SVG Version: 6.00 Build 0)  -->
<svg version="1.1" id="Layer_1" xmlns="http://www.w3.org/2000/svg" xmlns:xlink="http://www.w3.org/1999/xlink" x="0px" y="0px"
	 viewBox="0 0 600 600" style="enable-background:new 0 0 600 600;" xml:space="preserve">
<style type="text/css">
	.st0{fill:#FFFFFF;}
	.st1{fill:#90278E;}
	.st2{fill:#EE4036;}
	.st3{fill:#FAAF40;}
	.st4{fill:#8BC53F;}
</style>
<g>
	<path class="st0" d="M509.74,429.01c-3,4.33-7.15,5.57-12.33,5.48c-14.22-0.25-28.46-0.09-42.69-0.09c-1.67,0-3.35,0-5.26,0
		c0.75,4.7,1.48,8.91,2.09,13.14c1.15,8.03-2.26,11.98-10.43,11.98c-49.96,0.02-99.91,0.01-149.87,0.01c-43.77,0-87.54,0-131.31,0
		c-9.53,0-12.65-3.5-11.37-12.8c0.5-3.66,1.14-7.3,1.81-11.54c-1.73,0-3.39,0-5.04,0c-14.38,0-28.77,0.01-43.15-0.01
		c-9.68-0.01-12.97-3.68-11.66-13.16c2.36-17.18,10.24-31.27,25.26-40.14c10.44-6.16,21.86-10.67,32.81-15.97
		c5.55-2.68,11.16-5.26,16.52-8.28c4.74-2.68,6.9-6.8,7.05-12.6c0.21-8.09,0.25-15.48-5.08-22.62c-3.35-4.48-4.16-10.83-6.25-16.29
		c-0.56-1.47-1.49-2.87-2.51-4.06c-1.84-2.15-4.69-3.79-5.69-6.22c-3.78-9.26-6.49-18.73-0.59-28.35c0.55-0.9,0-2.64-0.36-3.91
		c-3.3-11.64-4.51-23.44-1.37-35.23c6.44-24.21,23.62-37.13,46.82-43.25c4.59-1.21,9.43-1.55,14.16-2.22
		c7.38-1.06,14.64-1.76,17.29,8.34c14.53-32.54,40.56-46.37,73.45-49.95c3.84-0.42,7.7-0.55,11.56-0.79
		c4.74-0.29,8.37,1.64,9.66,6.23c2.02,7.17,5.96,10.69,13.75,12.15c13.93,2.61,23.47,11.89,29.69,24.41
		c1.57,3.16,3.04,3.38,6.37,2.82c9.71-1.64,19.54-2.66,29.35-3.66c4.88-0.5,8.46,1.81,9.91,6.58c1.4,4.61,4.22,6.59,8.99,7.76
		c17.36,4.28,25.02,17.55,28.81,33.53c2.81,11.85,3.76,23.83-1.81,35.39c-0.36,0.75-0.24,2.07,0.19,2.83
		c4.43,7.96,3.26,25.75-3.73,31.17c-4.72,3.65-5.13,8.13-6.97,12.64c-2.26,5.53-5.25,10.75-7.82,16.16
		c-0.63,1.32-1.16,2.82-1.19,4.25c-0.09,3.86,0.34,7.74,0.14,11.59c-0.29,5.59,2.16,9.75,6.7,12.36c5.86,3.38,12.02,6.27,18.15,9.15
		c7.68,3.61,15.64,6.64,23.16,10.55c17.26,8.97,28.84,22.48,32.07,42.22c0.07,0.4,0.49,0.75,0.75,1.12
		C509.74,422.82,509.74,425.91,509.74,429.01z M432.57,442.24c-3.25-15.75-9.11-25.32-23.2-33.47
		c-11.29-6.53-23.46-11.59-35.44-16.84c-11.58-5.08-23.65-9.13-33.57-17.36c-7.74-6.42-12.65-14.24-12.37-24.73
		c0.14-5.25,0.02-10.51-0.14-15.77c-0.23-7.42-0.83-14.69,6.34-20.04c2.36-1.76,3.68-5.34,4.75-8.35c2.01-5.64,3.83-11.39,5.1-17.24
		c0.99-4.59,2.53-8.13,7.41-9.6c1.14-0.34,2.44-1.63,2.82-2.76c1.36-4.06,2.64-8.18,3.39-12.39c0.55-3.05-0.11-5.82-3.02-8.15
		c-3.42-2.74-3.3-6.57-1.41-10.52c1.71-3.59,4.02-7.31,4.26-11.09c0.58-9.01,1.3-18.3-0.19-27.11
		c-3.44-20.39-16.12-34.73-35.53-34.34c-2.53,0.05-5.46-2.89-7.59-5.05c-1.53-1.55-2.21-4.04-2.94-6.22
		c-0.9-2.66-2.49-3.62-5.22-3.11c-6.81,1.29-13.85,1.82-20.42,3.85c-32.94,10.14-44.42,31.93-44.66,58.69
		c-0.07,8.07,3.58,16.13,5.07,24.28c0.56,3.1,1.14,7.72-0.54,9.44c-6.61,6.75-3.76,13.7-1.73,20.74c0.41,1.43,1.91,3.27,3.24,3.6
		c6.06,1.54,7.4,5.98,8.48,11.33c2.15,10.68,5.6,20.8,14.3,28.35c1.49,1.29,2.29,4.08,2.34,6.2c0.2,8.5-0.17,17.01-0.03,25.51
		c0.18,10.32-4.49,18.23-12.29,24.25c-4.97,3.84-10.44,7.2-16.08,9.96c-7.33,3.58-15.2,6.04-22.56,9.55
		c-11.52,5.5-23.19,10.85-34.1,17.43c-11.25,6.78-17.16,17.74-19.6,30.96C255.87,442.24,344.05,442.24,432.57,442.24z
		 M490.65,417.23c-1.83-8.5-5.56-15.25-12.14-19.33c-9.12-5.67-18.87-10.33-28.45-15.24c-8.22-4.21-16.83-7.72-24.76-12.39
		c-6.38-3.75-11.53-9.63-12.58-17.08c-1.24-8.82-0.92-17.88-1.04-26.84c-0.02-1.55,0.78-3.47,1.85-4.62
		c6.39-6.85,8.87-15.31,10.93-24.13c0.59-2.52,2.61-5.27,4.77-6.74c4.52-3.08,6.59-11.75,3.05-15.99c-2.42-2.9-3.37-6.15-1.56-9.42
		c5.61-10.15,5.13-20.82,2.87-31.56c-2.88-13.67-10.48-21.53-22.3-22.5c-5.74-0.47-9.19-2.72-11.12-8c-0.44-1.2-1.98-2.91-2.92-2.85
		c-7.62,0.49-15.22,1.35-23.08,2.12c0.26,2.13,0.36,3.18,0.51,4.21c1.59,10.95,1.71,21.85-1.15,32.65c-1.3,4.9-4.99,9.84,0.17,14.68
		c0.2,0.19,0.24,0.56,0.31,0.86c2.45,11.71-0.68,22.29-6.69,32.22c-0.67,1.1-1.95,2.22-3.15,2.54c-3.66,0.97-4.07,3.68-5.06,6.79
		c-2.66,8.31-4.68,17.37-9.59,24.27c-4.74,6.67-5.08,13.01-4.71,20.16c0.09,1.7,0.55,3.43,0.36,5.08
		c-1.1,9.26,4.21,14.69,11.27,19.04c2.75,1.69,5.61,3.27,8.58,4.54c11.78,5.02,23.69,9.7,35.41,14.85
		c15.9,6.99,30.34,16.01,40.31,30.83c0.58,0.87,1.91,1.76,2.89,1.76C459.07,417.26,474.51,417.23,490.65,417.23z M109.54,418.04
		c15.77,0,30.9,0.04,46.03-0.08c1.11-0.01,2.64-0.92,3.26-1.87c8.09-12.44,19.4-21.19,32.52-27.48c11.52-5.53,23.64-9.81,35.19-15.3
		c8.14-3.87,15.95-8.55,23.5-13.5c2.24-1.47,4.06-4.95,4.38-7.7c0.84-7.19,0.78-14.49,0.97-21.75c0.03-1.13-0.17-2.65-0.88-3.37
		c-8.64-8.71-12.12-19.78-14.93-31.27c-0.5-2.03-1.82-4.26-3.43-5.56c-11.41-9.22-15.15-26.93-8.26-39.87
		c0.59-1.11,1.21-2.68,0.86-3.72c-3.77-11.42-5.51-23.09-4.8-33.21c-3.16-4.09-5.2-7.03-7.56-9.66c-1.16-1.29-3.01-2.99-4.41-2.87
		c-12.85,1.05-24.95,4.43-34.64,13.54c-12.76,11.99-16.05,30.94-8.63,49.73c1.69,4.3,1.76,7.87-1.49,11.52
		c-2.53,2.83-1.1,13.01,2.1,14.27c4.97,1.96,6.23,5.81,7.23,10.38c1.76,8.05,4.54,15.62,10.56,21.74c1.51,1.54,2.26,4.45,2.27,6.73
		c0.04,6.94,0.06,13.96-0.92,20.81c-0.67,4.7-2.1,9.85-4.87,13.53c-3.33,4.42-8.04,8.22-12.89,10.96
		c-7.21,4.07-15.22,6.71-22.64,10.46c-9.18,4.64-18.38,9.35-27.05,14.86C114.71,403.35,111.44,410,109.54,418.04z"/>
</g>
</svg>
