<?xml version="1.0" encoding="utf-8"?>
<!-- Generator: Adobe Illustrator 24.0.1, SVG Export Plug-In . SVG Version: 6.00 Build 0)  -->
<svg version="1.1" id="Layer_1" xmlns="http://www.w3.org/2000/svg" xmlns:xlink="http://www.w3.org/1999/xlink" x="0px" y="0px"
	 viewBox="0 0 600 600" style="enable-background:new 0 0 600 600;" xml:space="preserve">
<style type="text/css">
	.st0{fill:#FFFFFF;}
	.st1{fill:#90278E;}
	.st2{fill:#EE4036;}
	.st3{fill:#FAAF40;}
	.st4{fill:#8BC53F;}
</style>
<g>
	<path class="st0" d="M353.57,485.6c1.94-12.61,3.85-25.02,5.76-37.41c-8.5,4.51-16.46,9.41-24.95,13.12
		c-53.42,23.39-115.45,10.33-154.66-32.8c-20.44-22.49-31.14-49.18-31.59-79.75c-0.09-5.99,2.12-8.13,8.15-8.16
		c4.4-0.02,8.8-0.05,13.2-0.09c0.25,0,0.49-0.21,1.14-0.49c-0.61-4.04-1.23-8.19-1.9-12.65c-4.6,0-8.98,0.04-13.36-0.01
		c-4.57-0.06-7.26-2.56-7.24-6.6c0.02-4.02,2.72-6.53,7.3-6.54c14.44-0.04,28.87-0.02,43.31-0.02c1.5,0,3,0,4.79,0
		c0.61-4.43,1.19-8.59,1.82-13.22c-5.12,0-9.77,0-14.41,0c-11.55,0-23.1,0.01-34.65-0.01c-5.33-0.01-8.13-2.27-8.18-6.51
		c-0.04-4.29,2.78-6.65,8.02-6.66c9.61-0.02,19.21,0,29.48,0c-1.5-3.41-2.71-6.41-4.11-9.32c-4.21-8.76-4.34-17.4,0.29-26.09
		c0.55-1.03,0.4-2.92-0.19-3.99c-3.14-5.79-6.43-11.51-9.84-17.15c-5.53-9.15-16.01-12.28-25.8-7.83c-5.72,2.6-8.04,1.91-11.15-3.44
		c-3.94-6.76-7.88-13.53-11.73-20.34c-2.63-4.66-1.73-7.95,2.94-10.66c29.71-17.18,59.44-34.33,89.19-51.47
		c4.9-2.83,8.15-1.96,10.97,2.87c4.02,6.88,7.99,13.78,11.91,20.71c2.69,4.76,1.87,7.9-2.82,10.66
		c-8.99,5.27-18.03,10.45-27.48,15.91c2.07,3.61,4.03,7.03,6,10.44c4.39,7.61,8.88,15.17,13.12,22.86c1.28,2.32,2.66,3.3,5.4,3.33
		c8.07,0.08,14.49,3.78,19.45,10.01c2.8,3.51,2.42,7.34-0.75,9.83c-3.03,2.39-6.51,1.92-9.49-1.28c-5.89-6.33-11.24-7.19-18.68-2.92
		c-7.86,4.51-15.71,9.03-23.54,13.6c-7.44,4.35-9.47,10.67-6.01,18.54c1.54,3.52,3.14,7.01,4.73,10.51
		c2.38,5.25,4.48,6.41,10.01,5.11c0.96-0.22,1.8-1.41,2.46-2.32c2.72-3.78,4.97-7.97,8.08-11.37c7.68-8.38,19.78-9.01,28.68-1.94
		c5.61,4.46,7.34,4.46,12.85-0.03c0.32-0.26,0.61-0.64,0.98-0.74c6.32-1.69,5.99-6.51,5.87-11.61c-0.23-10.17-0.07-20.35-0.06-30.53
		c0.01-11.79,6.06-21.07,16.92-25.32c2.42-0.94,2.99-2.16,2.93-4.49c-0.14-4.95-0.05-9.9-0.04-14.85c0.01-6.06,0.82-7.25,6.6-9.48
		c0-6.1-0.04-12.28,0.01-18.46c0.04-4.97,2.37-7.33,7.3-7.36c8.39-0.05,16.78-0.06,25.16,0c4.65,0.03,7.03,2.45,7.08,7.17
		c0.07,6.18,0.02,12.37,0.02,18.84c0.79,0.23,1.56,0.37,2.25,0.68c3.31,1.46,4.94,4.04,4.22,7.59c-0.71,3.53-3.13,5.3-6.82,5.29
		c-9.21-0.03-18.42-0.01-27.64-0.01c-1.49,0-2.98,0-4.75,0c0,4.44,0,8.61,0,13.23c11.18,0,22.27-0.06,33.36,0.01
		c14.08,0.09,25.61,11.67,25.75,25.78c0.06,6.19,0.01,12.38,0.02,18.56c0,2.18,0,4.35,0,7.73c1.34-2.13,2.14-3.3,2.84-4.52
		c26.09-45.18,52.15-90.38,78.27-135.56c7.99-13.82,25.85-15.04,34.33-2.34c4.32,6.47,4.94,13.55,1.09,20.3
		c-17.42,30.53-35.06,60.93-52.67,91.35c-2.3,3.98-5.99,5.05-9.39,3.09c-3.54-2.04-4.35-5.82-1.93-10.03
		c16.72-29.03,33.47-58.04,50.21-87.06c0.75-1.31,1.55-2.6,2.17-3.97c1.57-3.42,0.54-6.21-2.43-8.23c-2.89-1.96-6.54-1.12-8.73,1.82
		c-0.49,0.66-0.88,1.39-1.29,2.11c-31.37,54.34-62.74,108.68-94.11,163.03c-0.59,1.03-1.12,2.1-2,3.74c4.79,0,9,0.22,13.17-0.14
		c1.22-0.1,2.68-1.61,3.4-2.84c8.11-13.86,16.11-27.8,24.13-41.72c0.62-1.07,1.18-2.18,1.9-3.18c2.31-3.24,5.85-4.05,9.02-2.13
		c3.07,1.86,4.18,5.57,2.3,8.99c-3.57,6.49-7.36,12.87-11.06,19.29c-4.03,6.99-8.05,13.98-12.52,21.73c6.39,0,12.06-0.01,17.74,0
		c6.27,0.02,8.34,2.1,8.34,8.41c0.01,7.29,0,14.58,0,21.87c0,7.51-1.75,9.29-9.1,9.3c-3.7,0-7.4,0-11.46,0
		c-0.69,4.34-1.35,8.49-2.1,13.23c5.16,0,9.92-0.02,14.68,0.01c5.78,0.03,8.08,2.21,7.96,7.94c-0.65,31.74-12,59.16-33.75,82.19
		c-2.55,2.7-3.7,5.49-4.22,8.97c-2.65,17.64-5.39,35.27-8.17,52.89c-0.74,4.67-2.82,6.38-7.5,6.39c-52.25,0.02-104.5,0.02-156.75,0
		c-4.6,0-6.61-1.78-7.41-6.5c-1.37-8.12-2.67-16.25-3.91-24.39c-0.69-4.57,1.66-8.04,5.62-8.6c3.76-0.53,6.7,1.85,7.51,6.41
		c1.15,6.48,2.13,13,3.21,19.69C255.55,485.6,304.31,485.6,353.57,485.6z M302.16,301.11c0.18,1.87,0.27,3.38,0.47,4.86
		c1.86,13.32,3.78,26.63,5.6,39.95c0.65,4.74-1.56,8.04-5.49,8.59c-3.84,0.54-7.05-2.3-7.69-6.84c-1.99-14.13-4-28.26-5.93-42.4
		c-1.12-8.22-3.85-15.71-9.65-21.84c-3.64-3.85-7.19-4.06-11.23-0.8c-9.76,7.86-19.43,7.86-29.13,0c-3.92-3.18-7.89-3.39-10.82,0.58
		c-3.37,4.55-6.61,9.55-8.35,14.87c-2.02,6.18-2.45,12.9-3.39,19.41c-3.52,24.31-6.97,48.62-10.43,72.94
		c-1.04,7.31-2.03,14.62-3.05,22.02c6.79-2.99,13.21-5.82,20.31-8.95c1.51-11.99,3.13-24.91,4.77-37.84
		c1.91-15.11,3.78-30.23,5.77-45.34c0.52-3.95,3.47-6.32,7.01-6.06c3.73,0.27,6.29,3.23,6.08,7.4c-0.16,3.15-0.63,6.28-1.03,9.41
		c-3.15,25.05-6.32,50.09-9.38,74.37c11.87,11.86,23.51,9.86,35.26-0.26c-0.64-9.02-1.35-18.74-2.03-28.45
		c-0.98-14.12-2.03-28.23-2.87-42.35c-0.24-4.06,2.33-6.71,5.98-6.96c3.93-0.27,6.8,2.12,7.12,6.28c1.15,14.93,2.2,29.87,3.29,44.81
		c0.64,8.74,1.28,17.49,1.9,25.91c3.44,1.22,6.48,2.51,9.64,3.34c2.2,0.57,5.1,1.4,6.68,0.44c1.23-0.75,1.43-4.12,1.19-6.22
		c-1.06-9.13-2.6-18.2-3.65-27.33c-0.48-4.14,2.24-7.13,5.97-7.47c3.37-0.31,6.53,2.27,7.11,6.06c1.44,9.5,2.79,19.01,4.13,28.52
		c1.04,7.41-1.01,13.7-7.35,18.02c-6.29,4.28-12.79,4.06-19.41,0.39c-5.76-3.2-11.73-3.08-17.16,0.65
		c-12.59,8.66-24.94,8.62-37.5-0.03c-5-3.44-10.64-3.92-16.03-1.09c-6.04,3.17-11.8,6.86-18.05,10.53c1.32,1.17,2.28,2.12,3.34,2.95
		c46.06,36.13,111.91,34.66,156.13-3.56c1.2-1.03,2.17-2.82,2.42-4.38c4.19-26.42,8.25-52.86,12.34-79.3
		c0.93-6.04,1.83-12.08,2.81-18.54c-2.12,0-3.61,0-5.1,0c-15.95,0-31.89,0.04-47.84-0.02c-5.36-0.02-8.61-4.61-6.59-9.19
		c1.4-3.16,4.09-4.02,7.43-4.01c22.82,0.08,45.64,0.04,68.46,0.04c1.46,0,2.92,0,4.4,0c0-4.67,0-8.83,0-13.08
		C366.46,301.11,334.6,301.11,302.16,301.11z M137.43,197.79c2.07,3.62,3.79,6.88,5.79,9.96c0.5,0.78,2.03,1.57,2.84,1.37
		c12.21-3,22.72,0.1,31.96,8.4c0.68,0.61,2.37,0.93,3.11,0.52c7.17-3.98,14.25-8.14,21.56-12.37c-3.14-5.45-6.18-10.64-9.14-15.88
		c-2.83-5.02-2.02-8.01,2.85-10.97c1.47-0.89,2.92-1.81,4.46-2.77c-2.23-3.84-4.27-7.35-6.47-11.15
		C175.31,175.93,156.59,186.73,137.43,197.79z M280.44,234.65c22.04,0,43.79,0,65.66,0c0-1.03-0.01-1.71,0-2.39
		c0.11-12.41-4.59-17.11-17.11-17.1c-10.99,0.01-21.97-0.01-32.96,0.01c-1.64,0-3.32-0.05-4.92,0.26
		C282.74,217.08,279.04,223.76,280.44,234.65z M280.27,261.11c22.07,0,43.82,0,65.5,0c0-4.46,0-8.63,0-12.74
		c-21.99,0-43.65,0-65.5,0C280.27,252.64,280.27,256.71,280.27,261.11z M290.05,274.71c2.42,3.8,4.37,7.27,6.75,10.42
		c0.95,1.26,2.84,2.53,4.33,2.55c11.4,0.21,22.81,0.16,34.22,0.06c1.77-0.01,4.54-0.11,5.13-1.14c2.12-3.7,5.75-6.9,5.49-11.89
		C327.18,274.71,308.81,274.71,290.05,274.71z M201.67,327.57c-6.51,0-12.66,0-19.35,0c3.25,21.22,6.45,42.16,9.66,63.1
		c0.21-0.01,0.42-0.02,0.64-0.03C195.61,369.75,198.61,348.86,201.67,327.57z M161.69,353.95c1.42,19.95,7.64,37.62,19.39,53.33
		c-2.76-17.79-5.52-35.59-8.28-53.33C168.88,353.95,165.49,353.95,161.69,353.95z M379.13,407.36
		c11.73-15.95,18.09-33.65,19.31-53.37c-3.93,0-7.45,0-11.08,0C384.59,371.91,381.86,389.63,379.13,407.36z M209.4,217.26
		c-7.71,4.44-15.13,8.72-22.72,13.09c2.24,3.86,4.33,7.47,6.54,11.29c7.76-4.5,15.14-8.78,22.69-13.15
		C213.63,224.55,211.6,221.05,209.4,217.26z M306.75,162.55c0,4.46,0,8.62,0,12.71c4.45,0,8.61,0,12.74,0c0-4.39,0-8.46,0-12.71
		C315.23,162.55,311.16,162.55,306.75,162.55z M223.81,162.96c-2.32-4-4.36-7.52-6.53-11.26c-3.87,2.24-7.46,4.31-11.28,6.52
		c2.31,3.98,4.35,7.48,6.54,11.25C216.41,167.23,219.92,165.21,223.81,162.96z"/>
</g>
</svg>
